<svg id="svg" version="1.1" xmlns="http://www.w3.org/2000/svg" xmlns:xlink="http://www.w3.org/1999/xlink" width="400" height="96.29629629629629" viewBox="0, 0, 400,96.29629629629629"><g id="svgg"><path id="path0" d="M28.565 11.070 C 28.501 11.239,28.260 11.333,27.894 11.333 C 27.540 11.333,27.286 11.428,27.227 11.583 C 27.174 11.721,27.027 11.833,26.899 11.833 C 26.771 11.833,26.667 11.946,26.667 12.083 C 26.667 12.221,26.554 12.333,26.417 12.333 C 26.279 12.333,26.167 12.446,26.167 12.583 C 26.167 12.721,26.093 12.833,26.003 12.833 C 25.913 12.833,25.793 13.021,25.735 13.250 C 25.678 13.479,25.564 13.667,25.482 13.667 C 25.400 13.667,25.333 13.807,25.333 13.980 C 25.333 14.152,25.221 14.386,25.083 14.500 C 24.946 14.614,24.833 14.878,24.833 15.086 C 24.833 15.294,24.721 15.508,24.583 15.560 C 24.408 15.628,24.333 15.901,24.333 16.477 C 24.333 17.053,24.259 17.326,24.083 17.394 C 23.908 17.461,23.833 17.735,23.833 18.314 C 23.833 18.804,23.753 19.166,23.635 19.205 C 23.518 19.244,23.407 19.729,23.365 20.386 C 23.326 20.999,23.228 21.500,23.147 21.500 C 23.066 21.500,23.000 21.725,23.000 22.000 C 23.000 22.333,22.917 22.500,22.750 22.500 C 22.613 22.500,22.500 22.613,22.500 22.750 C 22.500 22.887,22.423 23.000,22.329 23.000 C 22.235 23.000,22.090 23.181,22.005 23.402 C 21.921 23.624,21.698 23.854,21.510 23.914 C 21.321 23.973,21.167 24.117,21.167 24.232 C 21.167 24.347,20.763 24.854,20.270 25.359 C 19.777 25.865,19.322 26.440,19.259 26.639 C 19.196 26.838,19.074 27.000,18.989 27.000 C 18.903 27.000,18.833 27.113,18.833 27.250 C 18.833 27.387,18.721 27.500,18.583 27.500 C 18.446 27.500,18.333 27.604,18.333 27.732 C 18.333 27.860,18.221 28.008,18.083 28.060 C 17.946 28.113,17.833 28.337,17.833 28.559 C 17.833 28.826,17.717 28.992,17.488 29.052 C 17.297 29.101,17.101 29.297,17.052 29.488 C 17.002 29.678,16.857 29.833,16.731 29.833 C 16.604 29.833,16.500 29.946,16.500 30.083 C 16.500 30.221,16.387 30.333,16.250 30.333 C 16.112 30.333,16.000 30.408,16.000 30.500 C 16.000 30.592,15.550 31.117,15.000 31.667 L 14.000 32.667 8.661 32.667 C 4.070 32.667,3.309 32.702,3.227 32.917 C 3.174 33.054,3.038 33.167,2.924 33.167 C 2.604 33.167,1.667 33.673,1.667 33.846 C 1.667 33.930,1.554 34.000,1.417 34.000 C 1.279 34.000,1.167 34.112,1.167 34.250 C 1.167 34.387,1.095 34.500,1.008 34.500 C 0.920 34.500,0.799 34.763,0.739 35.085 C 0.678 35.407,0.562 35.711,0.481 35.762 C 0.397 35.813,0.333 41.257,0.333 48.334 L 0.333 60.816 0.759 61.616 C 1.334 62.698,2.263 63.493,2.958 63.497 C 3.327 63.499,3.500 63.580,3.500 63.750 C 3.500 63.968,4.285 64.000,9.566 64.000 C 14.803 64.000,15.644 64.034,15.727 64.250 C 15.793 64.422,16.061 64.500,16.583 64.500 C 17.106 64.500,17.374 64.578,17.440 64.750 C 17.498 64.902,17.750 65.000,18.081 65.000 C 18.381 65.000,18.719 65.112,18.833 65.250 C 18.947 65.387,19.215 65.500,19.427 65.500 C 19.640 65.500,19.860 65.575,19.917 65.667 C 19.973 65.758,20.355 65.833,20.765 65.833 C 21.274 65.833,21.541 65.913,21.606 66.083 C 21.669 66.246,21.928 66.333,22.351 66.333 C 22.817 66.333,23.000 66.404,23.000 66.583 C 23.000 66.763,23.184 66.833,23.653 66.833 C 24.012 66.833,24.334 66.918,24.368 67.021 C 24.403 67.124,24.821 67.246,25.299 67.292 C 25.776 67.338,26.167 67.441,26.167 67.521 C 26.167 67.601,26.609 67.667,27.149 67.667 C 27.868 67.667,28.157 67.734,28.227 67.917 C 28.372 68.293,41.354 68.293,41.667 67.917 C 41.781 67.779,42.090 67.667,42.354 67.667 C 42.618 67.667,42.833 67.592,42.833 67.500 C 42.833 67.408,43.012 67.333,43.230 67.333 C 43.448 67.333,43.719 67.221,43.833 67.083 C 43.947 66.946,44.182 66.833,44.354 66.833 C 44.526 66.833,44.667 66.721,44.667 66.583 C 44.667 66.446,44.779 66.333,44.917 66.333 C 45.054 66.333,45.167 66.221,45.167 66.083 C 45.167 65.928,45.324 65.833,45.583 65.833 C 45.843 65.833,46.000 65.739,46.000 65.583 C 46.000 65.446,46.112 65.333,46.250 65.333 C 46.406 65.333,46.500 65.176,46.500 64.917 C 46.500 64.657,46.594 64.500,46.750 64.500 C 46.887 64.500,47.000 64.387,47.000 64.250 C 47.000 64.112,47.112 64.000,47.250 64.000 C 47.387 64.000,47.500 63.887,47.500 63.750 C 47.500 63.612,47.575 63.500,47.667 63.500 C 47.758 63.500,47.833 63.200,47.833 62.833 C 47.833 62.352,47.903 62.167,48.083 62.167 C 48.263 62.167,48.333 61.983,48.333 61.518 C 48.333 61.095,48.420 60.836,48.583 60.773 C 48.777 60.699,48.833 60.375,48.833 59.339 C 48.833 58.575,48.904 58.000,48.997 58.000 C 49.087 58.000,49.207 57.816,49.263 57.590 C 49.320 57.365,49.471 57.093,49.600 56.986 C 49.728 56.880,49.833 56.652,49.833 56.480 C 49.833 56.307,49.908 56.167,50.000 56.167 C 50.092 56.167,50.167 55.951,50.167 55.687 C 50.167 55.423,50.279 55.114,50.417 55.000 C 50.577 54.867,50.667 54.498,50.667 53.974 C 50.667 53.522,50.780 52.982,50.920 52.768 C 51.104 52.487,51.163 52.013,51.134 51.035 C 51.103 49.959,51.153 49.625,51.381 49.373 C 51.542 49.195,51.667 48.789,51.667 48.445 C 51.667 48.109,51.742 47.833,51.833 47.833 C 51.937 47.833,52.000 46.839,52.000 45.184 C 52.000 42.984,52.042 42.519,52.250 42.440 C 52.396 42.384,52.500 42.134,52.500 41.839 C 52.500 41.501,52.583 41.333,52.750 41.333 C 52.926 41.333,53.000 41.156,53.000 40.738 C 53.000 40.411,53.113 40.030,53.250 39.893 C 53.617 39.526,53.617 35.201,53.250 35.060 C 53.089 34.998,53.000 34.740,53.000 34.333 C 53.000 33.926,52.911 33.668,52.750 33.606 C 52.612 33.554,52.500 33.321,52.500 33.089 C 52.500 32.825,52.406 32.667,52.250 32.667 C 52.112 32.667,52.000 32.554,52.000 32.417 C 52.000 32.279,51.925 32.167,51.833 32.167 C 51.742 32.167,51.667 32.051,51.667 31.910 C 51.667 31.628,50.388 30.338,50.098 30.326 C 49.998 30.322,49.733 30.097,49.508 29.826 C 49.272 29.542,48.937 29.333,48.716 29.333 C 48.506 29.333,48.333 29.258,48.333 29.167 C 48.333 29.075,48.118 29.000,47.854 29.000 C 47.590 29.000,47.281 28.887,47.167 28.750 C 47.022 28.576,46.639 28.500,45.906 28.500 C 45.327 28.500,44.807 28.425,44.750 28.333 C 44.688 28.233,43.548 28.167,41.889 28.167 C 39.326 28.167,39.140 28.146,39.256 27.875 C 39.324 27.715,39.418 27.361,39.464 27.089 C 39.511 26.817,39.650 26.493,39.774 26.369 C 39.902 26.241,40.000 25.793,40.000 25.342 C 40.000 24.833,40.091 24.465,40.250 24.333 C 40.450 24.167,40.500 23.668,40.500 21.833 C 40.500 19.999,40.450 19.499,40.250 19.333 C 40.084 19.196,40.000 18.822,40.000 18.224 C 40.000 17.577,39.930 17.296,39.750 17.227 C 39.596 17.168,39.500 16.914,39.500 16.566 C 39.500 16.254,39.425 16.000,39.333 16.000 C 39.242 16.000,39.167 15.810,39.167 15.578 C 39.167 15.346,39.054 15.113,38.917 15.060 C 38.779 15.008,38.667 14.820,38.667 14.644 C 38.667 14.467,38.554 14.280,38.417 14.227 C 38.279 14.174,38.167 14.027,38.167 13.899 C 38.167 13.771,38.054 13.667,37.917 13.667 C 37.779 13.667,37.667 13.585,37.667 13.485 C 37.667 13.224,36.968 12.679,36.625 12.672 C 36.465 12.669,36.333 12.592,36.333 12.500 C 36.333 12.408,36.221 12.333,36.083 12.333 C 35.946 12.333,35.833 12.221,35.833 12.083 C 35.833 11.919,35.669 11.833,35.351 11.833 C 35.076 11.833,34.828 11.726,34.773 11.583 C 34.706 11.408,34.432 11.333,33.852 11.333 C 33.341 11.333,33.002 11.254,32.959 11.125 C 32.843 10.778,28.697 10.726,28.565 11.070 M261.833 19.500 C 261.833 23.685,261.800 24.333,261.583 24.333 C 261.364 24.333,261.333 25.622,261.333 34.929 C 261.333 44.124,261.300 45.557,261.083 45.774 C 260.873 45.984,260.833 46.773,260.833 50.767 C 260.833 54.830,260.869 55.524,261.083 55.606 C 261.276 55.681,261.333 56.003,261.333 57.023 C 261.333 58.043,261.390 58.366,261.583 58.440 C 261.759 58.507,261.833 58.781,261.833 59.356 C 261.833 59.932,261.908 60.206,262.083 60.273 C 262.246 60.336,262.333 60.595,262.333 61.018 C 262.333 61.483,262.404 61.667,262.583 61.667 C 262.750 61.667,262.833 61.833,262.833 62.167 C 262.833 62.442,262.908 62.667,263.000 62.667 C 263.092 62.667,263.167 62.854,263.167 63.083 C 263.167 63.343,263.261 63.500,263.417 63.500 C 263.583 63.500,263.667 63.667,263.667 64.000 C 263.667 64.333,263.750 64.500,263.917 64.500 C 264.057 64.500,264.167 64.649,264.167 64.841 C 264.167 65.029,264.354 65.356,264.583 65.569 C 264.813 65.781,265.000 66.040,265.000 66.144 C 265.000 66.248,265.112 66.333,265.250 66.333 C 265.387 66.333,265.500 66.446,265.500 66.583 C 265.500 66.721,265.612 66.833,265.750 66.833 C 265.906 66.833,266.000 66.991,266.000 67.250 C 266.000 67.602,266.078 67.667,266.500 67.667 C 266.775 67.667,267.000 67.741,267.000 67.831 C 267.000 68.157,267.582 68.667,267.954 68.667 C 268.180 68.667,268.333 68.768,268.333 68.917 C 268.333 69.054,268.446 69.167,268.583 69.167 C 268.721 69.167,268.833 69.242,268.833 69.333 C 268.833 69.425,269.133 69.500,269.500 69.500 C 269.981 69.500,270.167 69.569,270.167 69.750 C 270.167 69.941,270.378 70.000,271.066 70.000 C 271.723 70.000,271.991 70.069,272.063 70.258 C 272.141 70.461,272.386 70.505,273.206 70.466 L 274.250 70.417 274.299 68.919 C 274.335 67.820,274.412 67.386,274.590 67.286 C 274.937 67.092,274.948 63.667,274.601 63.667 C 274.473 63.667,274.326 63.554,274.273 63.417 C 274.206 63.241,273.932 63.167,273.356 63.167 C 272.781 63.167,272.507 63.092,272.440 62.917 C 272.387 62.779,272.154 62.667,271.922 62.667 C 271.658 62.667,271.500 62.573,271.500 62.417 C 271.500 62.279,271.420 62.167,271.321 62.167 C 271.091 62.167,270.667 61.743,270.667 61.512 C 270.667 61.414,270.554 61.333,270.417 61.333 C 270.260 61.333,270.167 61.175,270.167 60.911 C 270.167 60.679,270.054 60.446,269.917 60.394 C 269.779 60.341,269.667 60.193,269.667 60.066 C 269.667 59.938,269.554 59.833,269.417 59.833 C 269.242 59.833,269.167 59.657,269.167 59.245 C 269.167 58.875,269.074 58.620,268.917 58.560 C 268.754 58.498,268.667 58.238,268.667 57.816 C 268.667 57.459,268.592 57.167,268.500 57.167 C 268.391 57.167,268.333 53.333,268.333 46.000 C 268.333 38.667,268.391 34.833,268.500 34.833 C 268.609 34.833,268.667 31.978,268.667 26.601 C 268.667 19.437,268.699 18.357,268.917 18.273 C 269.117 18.196,269.167 17.828,269.167 16.422 L 269.167 14.667 265.500 14.667 L 261.833 14.667 261.833 19.500 M32.667 16.597 C 32.667 16.748,32.846 16.833,33.167 16.833 C 33.500 16.833,33.667 16.917,33.667 17.083 C 33.667 17.221,33.742 17.333,33.833 17.333 C 33.925 17.333,34.000 17.437,34.000 17.563 C 34.000 17.689,34.112 17.886,34.250 18.000 C 34.387 18.114,34.500 18.452,34.500 18.750 C 34.500 19.048,34.612 19.386,34.750 19.500 C 34.947 19.664,35.000 20.138,35.000 21.753 C 35.000 23.417,34.953 23.816,34.750 23.894 C 34.590 23.955,34.498 24.217,34.495 24.620 C 34.492 24.966,34.379 25.396,34.245 25.574 C 34.110 25.751,34.000 26.070,34.000 26.282 C 34.000 26.494,33.925 26.667,33.833 26.667 C 33.742 26.667,33.667 26.854,33.667 27.083 C 33.667 27.343,33.572 27.500,33.417 27.500 C 33.259 27.500,33.167 27.659,33.167 27.929 C 33.167 28.164,33.054 28.470,32.917 28.607 C 32.779 28.745,32.667 29.030,32.667 29.241 C 32.667 29.453,32.554 29.719,32.417 29.833 C 32.275 29.951,32.167 30.314,32.167 30.673 C 32.167 31.022,32.076 31.336,31.964 31.373 C 31.836 31.416,31.759 31.805,31.756 32.429 L 31.750 33.417 38.411 33.460 C 44.104 33.498,45.092 33.540,45.211 33.752 C 45.287 33.888,45.526 34.000,45.740 34.000 C 45.955 34.000,46.174 34.112,46.227 34.250 C 46.280 34.388,46.475 34.500,46.661 34.500 C 46.911 34.500,47.000 34.609,47.000 34.917 C 47.000 35.176,47.094 35.333,47.250 35.333 C 47.387 35.333,47.500 35.446,47.500 35.583 C 47.500 35.721,47.612 35.833,47.750 35.833 C 47.956 35.833,48.000 36.130,48.000 37.500 C 48.000 38.870,47.956 39.167,47.750 39.167 C 47.597 39.167,47.500 39.322,47.500 39.566 C 47.500 39.785,47.387 40.008,47.250 40.060 C 47.112 40.113,47.000 40.346,47.000 40.578 C 47.000 40.842,46.906 41.000,46.750 41.000 C 46.612 41.000,46.500 41.070,46.500 41.155 C 46.500 41.240,46.331 41.334,46.125 41.363 C 45.668 41.428,45.463 42.333,45.906 42.333 C 46.073 42.333,46.167 42.483,46.167 42.750 C 46.167 42.979,46.232 43.167,46.312 43.167 C 46.392 43.167,46.494 43.550,46.539 44.018 C 46.584 44.486,46.724 44.933,46.851 45.011 C 47.042 45.129,47.032 45.235,46.790 45.644 C 46.631 45.914,46.500 46.325,46.500 46.558 C 46.500 46.790,46.425 47.027,46.333 47.083 C 46.242 47.140,46.167 47.324,46.167 47.492 C 46.167 47.660,46.054 47.841,45.917 47.894 C 45.779 47.946,45.667 48.095,45.667 48.224 C 45.667 48.354,45.554 48.553,45.417 48.667 C 45.257 48.800,45.167 49.168,45.167 49.692 C 45.167 50.266,45.241 50.539,45.417 50.606 C 45.599 50.676,45.667 50.963,45.667 51.664 C 45.667 52.316,45.586 52.693,45.417 52.833 C 45.279 52.947,45.167 53.221,45.167 53.442 C 45.167 53.663,45.054 53.887,44.917 53.940 C 44.779 53.992,44.667 54.215,44.667 54.434 C 44.667 54.678,44.569 54.833,44.417 54.833 C 44.279 54.833,44.167 54.941,44.167 55.072 C 44.167 55.203,43.998 55.334,43.792 55.363 C 43.426 55.415,43.416 55.473,43.372 57.750 C 43.342 59.350,43.263 60.136,43.122 60.250 C 43.009 60.342,42.810 60.623,42.680 60.875 C 42.550 61.127,42.344 61.333,42.222 61.333 C 42.100 61.333,42.000 61.446,42.000 61.583 C 42.000 61.721,41.887 61.833,41.750 61.833 C 41.612 61.833,41.500 61.908,41.500 62.000 C 41.500 62.092,41.387 62.167,41.250 62.167 C 41.112 62.167,41.000 62.279,41.000 62.417 C 41.000 62.606,40.796 62.667,40.161 62.667 C 39.570 62.667,39.295 62.740,39.227 62.917 C 39.146 63.129,38.561 63.167,35.387 63.167 C 32.281 63.167,31.600 63.124,31.393 62.917 C 31.213 62.737,30.776 62.667,29.839 62.667 C 28.834 62.667,28.514 62.609,28.440 62.417 C 28.372 62.240,28.097 62.167,27.505 62.167 C 27.044 62.167,26.667 62.092,26.667 62.000 C 26.667 61.908,26.329 61.833,25.917 61.833 C 25.361 61.833,25.167 61.769,25.167 61.583 C 25.167 61.391,24.954 61.333,24.250 61.333 C 23.546 61.333,23.333 61.275,23.333 61.083 C 23.333 60.904,23.150 60.833,22.684 60.833 C 22.262 60.833,22.002 60.746,21.940 60.583 C 21.885 60.440,21.636 60.333,21.359 60.333 C 21.092 60.333,20.781 60.221,20.667 60.083 C 20.553 59.946,20.285 59.833,20.073 59.833 C 19.860 59.833,19.640 59.758,19.583 59.667 C 19.527 59.575,19.193 59.500,18.841 59.500 C 18.427 59.500,18.169 59.412,18.106 59.250 C 18.029 59.048,17.643 59.000,16.089 59.000 L 14.167 59.000 14.167 48.583 L 14.167 38.167 14.755 38.167 C 15.125 38.167,15.380 38.074,15.440 37.917 C 15.502 37.754,15.762 37.667,16.184 37.667 C 16.650 37.667,16.833 37.596,16.833 37.417 C 16.833 37.279,16.946 37.167,17.083 37.167 C 17.221 37.167,17.333 37.092,17.333 37.000 C 17.333 36.908,17.446 36.833,17.583 36.833 C 17.721 36.833,17.833 36.721,17.833 36.583 C 17.833 36.446,17.946 36.333,18.083 36.333 C 18.221 36.333,18.333 36.221,18.333 36.083 C 18.333 35.946,18.460 35.833,18.615 35.833 C 18.948 35.833,20.167 34.578,20.167 34.236 C 20.167 34.106,20.279 34.000,20.417 34.000 C 20.554 34.000,20.667 33.887,20.667 33.750 C 20.667 33.612,20.742 33.500,20.833 33.500 C 20.925 33.500,21.000 33.387,21.000 33.250 C 21.000 33.112,21.112 33.000,21.250 33.000 C 21.387 33.000,21.500 32.887,21.500 32.750 C 21.500 32.612,21.613 32.500,21.750 32.500 C 21.890 32.500,22.000 32.351,22.000 32.161 C 22.000 31.975,22.113 31.780,22.250 31.727 C 22.387 31.674,22.500 31.527,22.500 31.399 C 22.500 31.271,22.575 31.167,22.667 31.167 C 22.758 31.167,22.833 31.054,22.833 30.917 C 22.833 30.779,22.946 30.667,23.083 30.667 C 23.221 30.667,23.333 30.562,23.333 30.434 C 23.333 30.307,23.446 30.159,23.583 30.106 C 23.721 30.054,23.833 29.858,23.833 29.672 C 23.833 29.482,23.943 29.333,24.083 29.333 C 24.221 29.333,24.333 29.221,24.333 29.083 C 24.333 28.946,24.446 28.833,24.583 28.833 C 24.721 28.833,24.833 28.775,24.833 28.704 C 24.833 28.546,25.773 27.413,26.292 26.945 C 26.498 26.759,26.667 26.508,26.667 26.387 C 26.667 26.266,26.742 26.167,26.833 26.167 C 26.925 26.167,27.000 26.062,27.000 25.934 C 27.000 25.807,27.113 25.659,27.250 25.606 C 27.387 25.554,27.500 25.329,27.500 25.106 C 27.500 24.884,27.613 24.659,27.750 24.606 C 27.905 24.547,28.000 24.293,28.000 23.940 C 28.000 23.586,28.095 23.332,28.250 23.273 C 28.426 23.206,28.500 22.932,28.500 22.352 C 28.500 21.861,28.580 21.501,28.699 21.461 C 28.809 21.425,28.961 20.912,29.037 20.322 C 29.312 18.200,29.376 17.915,29.603 17.783 C 29.730 17.710,29.833 17.474,29.833 17.260 C 29.833 17.045,29.946 16.826,30.083 16.773 C 30.221 16.720,30.333 16.581,30.333 16.464 C 30.333 16.305,30.633 16.264,31.500 16.305 C 32.370 16.347,32.667 16.421,32.667 16.597 M192.833 24.083 C 192.833 24.282,192.593 24.333,191.667 24.333 L 190.500 24.333 190.500 31.000 L 190.500 37.667 185.495 37.667 C 181.199 37.667,180.476 37.702,180.394 37.917 C 180.341 38.054,180.193 38.167,180.066 38.167 C 179.919 38.167,179.833 38.350,179.833 38.667 C 179.833 38.942,179.756 39.167,179.663 39.167 C 179.551 39.167,179.508 40.107,179.538 41.875 L 179.583 44.583 181.240 44.631 C 182.592 44.671,182.923 44.632,183.040 44.423 C 183.162 44.205,183.697 44.167,186.592 44.167 L 190.000 44.167 190.000 53.000 C 190.000 58.778,189.942 61.833,189.833 61.833 C 189.726 61.833,189.667 63.473,189.667 66.420 L 189.667 71.007 193.292 70.962 L 196.917 70.917 196.959 58.923 C 196.997 48.489,197.035 46.911,197.251 46.789 C 197.437 46.685,197.500 46.336,197.500 45.408 L 197.500 44.167 199.083 44.167 C 200.380 44.167,200.667 44.121,200.667 43.917 C 200.667 43.702,201.213 43.667,204.583 43.667 C 207.954 43.667,208.500 43.632,208.500 43.417 C 208.500 43.279,208.612 43.167,208.750 43.167 C 208.963 43.167,209.000 42.722,209.000 40.167 L 209.000 37.167 203.854 37.167 C 199.483 37.167,198.676 37.204,198.500 37.417 C 198.386 37.554,198.114 37.667,197.896 37.667 L 197.500 37.667 197.500 30.750 L 197.500 23.833 195.167 23.833 C 193.204 23.833,192.833 23.873,192.833 24.083 M229.500 24.583 C 229.500 24.721,229.387 24.833,229.250 24.833 C 229.094 24.833,229.000 24.991,229.000 25.250 C 229.000 25.509,228.906 25.667,228.750 25.667 C 228.583 25.667,228.500 25.833,228.500 26.167 C 228.500 26.500,228.417 26.667,228.250 26.667 C 228.109 26.667,228.000 26.816,228.000 27.008 C 228.000 27.196,227.813 27.523,227.583 27.735 C 227.342 27.959,227.167 28.306,227.167 28.561 C 227.167 28.840,227.076 29.000,226.917 29.000 C 226.761 29.000,226.667 29.157,226.667 29.417 C 226.667 29.676,226.572 29.833,226.417 29.833 C 226.252 29.833,226.167 29.998,226.167 30.316 C 226.167 30.590,226.059 30.839,225.917 30.894 C 225.779 30.946,225.667 31.142,225.667 31.328 C 225.667 31.514,225.592 31.667,225.500 31.667 C 225.408 31.667,225.333 31.892,225.333 32.167 C 225.333 32.500,225.250 32.667,225.083 32.667 C 224.928 32.667,224.833 32.824,224.833 33.083 C 224.833 33.343,224.739 33.500,224.583 33.500 C 224.417 33.500,224.333 33.667,224.333 34.000 C 224.333 34.333,224.250 34.500,224.083 34.500 C 223.931 34.500,223.833 34.655,223.833 34.899 C 223.833 35.118,223.721 35.341,223.583 35.394 C 223.446 35.446,223.333 35.679,223.333 35.911 C 223.333 36.143,223.258 36.333,223.167 36.333 C 223.075 36.333,223.000 36.521,223.000 36.750 C 223.000 37.009,222.906 37.167,222.750 37.167 C 222.583 37.167,222.500 37.333,222.500 37.667 C 222.500 38.000,222.417 38.167,222.250 38.167 C 222.083 38.167,222.000 38.333,222.000 38.667 C 222.000 39.000,221.917 39.167,221.750 39.167 C 221.594 39.167,221.500 39.324,221.500 39.583 C 221.500 39.813,221.425 40.000,221.333 40.000 C 221.242 40.000,221.167 40.225,221.167 40.500 C 221.167 40.833,221.083 41.000,220.917 41.000 C 220.764 41.000,220.667 41.155,220.667 41.399 C 220.667 41.618,220.554 41.841,220.417 41.894 C 220.279 41.946,220.167 42.179,220.167 42.411 C 220.167 42.675,220.073 42.833,219.917 42.833 C 219.775 42.833,219.667 42.983,219.667 43.179 C 219.667 43.368,219.554 43.636,219.417 43.774 C 219.279 43.911,219.167 44.168,219.167 44.345 C 219.167 44.522,219.092 44.667,219.000 44.667 C 218.908 44.667,218.833 44.846,218.833 45.066 C 218.833 45.285,218.721 45.508,218.583 45.560 C 218.418 45.624,218.333 45.885,218.333 46.328 C 218.333 46.814,218.264 47.000,218.083 47.000 C 217.931 47.000,217.833 47.155,217.833 47.399 C 217.833 47.618,217.721 47.841,217.583 47.894 C 217.446 47.946,217.333 48.179,217.333 48.411 C 217.333 48.643,217.258 48.833,217.167 48.833 C 217.075 48.833,217.000 49.013,217.000 49.232 C 217.000 49.452,216.887 49.674,216.750 49.727 C 216.612 49.780,216.500 50.013,216.500 50.245 C 216.500 50.509,216.406 50.667,216.250 50.667 C 216.069 50.667,216.000 50.852,216.000 51.333 C 216.000 51.815,215.931 52.000,215.750 52.000 C 215.583 52.000,215.500 52.167,215.500 52.500 C 215.500 52.833,215.417 53.000,215.250 53.000 C 215.096 53.000,215.000 53.156,215.000 53.407 C 215.000 53.631,214.925 53.860,214.833 53.917 C 214.742 53.973,214.667 54.203,214.667 54.427 C 214.667 54.677,214.571 54.833,214.417 54.833 C 214.236 54.833,214.167 55.019,214.167 55.500 C 214.167 55.981,214.097 56.167,213.917 56.167 C 213.752 56.167,213.667 56.331,213.667 56.649 C 213.667 56.924,213.559 57.172,213.417 57.227 C 213.279 57.280,213.167 57.471,213.167 57.652 C 213.167 57.832,213.092 58.027,213.000 58.083 C 212.908 58.140,212.833 58.482,212.833 58.843 C 212.833 59.316,212.763 59.500,212.583 59.500 C 212.431 59.500,212.333 59.655,212.333 59.899 C 212.333 60.118,212.221 60.341,212.083 60.394 C 211.918 60.457,211.833 60.718,211.833 61.161 C 211.833 61.648,211.764 61.833,211.583 61.833 C 211.431 61.833,211.333 61.989,211.333 62.232 C 211.333 62.452,211.221 62.674,211.083 62.727 C 210.926 62.787,210.833 63.042,210.833 63.411 C 210.833 63.735,210.758 64.000,210.667 64.000 C 210.575 64.000,210.500 64.225,210.500 64.500 C 210.500 64.833,210.417 65.000,210.250 65.000 C 210.069 65.000,210.000 65.185,210.000 65.667 C 210.000 66.148,209.931 66.333,209.750 66.333 C 209.565 66.333,209.500 66.528,209.500 67.083 C 209.500 67.639,209.435 67.833,209.250 67.833 C 209.094 67.833,209.000 67.991,209.000 68.250 C 209.000 68.479,208.925 68.667,208.833 68.667 C 208.742 68.667,208.667 68.967,208.667 69.333 L 208.667 70.000 209.583 70.000 C 210.287 70.000,210.500 70.058,210.500 70.250 C 210.500 70.454,210.785 70.500,212.066 70.500 C 213.322 70.500,213.650 70.551,213.730 70.757 C 213.933 71.288,216.405 71.018,216.469 70.458 C 216.498 70.206,216.592 70.000,216.678 70.000 C 216.763 70.000,216.833 69.700,216.833 69.333 C 216.833 68.852,216.903 68.667,217.083 68.667 C 217.263 68.667,217.333 68.483,217.333 68.018 C 217.333 67.595,217.420 67.336,217.583 67.273 C 217.721 67.220,217.833 66.995,217.833 66.773 C 217.833 66.551,217.946 66.326,218.083 66.273 C 218.240 66.213,218.333 65.958,218.333 65.589 C 218.333 65.265,218.408 65.000,218.500 65.000 C 218.592 65.000,218.667 64.662,218.667 64.250 C 218.667 63.694,218.731 63.500,218.917 63.500 C 219.097 63.500,219.167 63.315,219.167 62.833 C 219.167 62.352,219.236 62.167,219.417 62.167 C 219.569 62.167,219.667 62.011,219.667 61.768 C 219.667 61.548,219.779 61.326,219.917 61.273 C 220.074 61.213,220.167 60.958,220.167 60.589 C 220.167 59.817,220.648 59.333,221.417 59.333 C 221.737 59.333,222.000 59.258,222.000 59.167 C 222.000 59.059,223.863 59.000,227.255 59.000 C 231.773 59.000,232.524 58.965,232.606 58.750 C 232.689 58.535,233.438 58.500,237.940 58.500 C 242.441 58.500,243.191 58.465,243.273 58.250 C 243.502 57.654,244.667 57.937,244.667 58.589 C 244.667 58.958,244.760 59.213,244.917 59.273 C 245.080 59.336,245.167 59.595,245.167 60.023 C 245.167 60.451,245.253 60.710,245.417 60.773 C 245.580 60.836,245.667 61.095,245.667 61.518 C 245.667 61.983,245.737 62.167,245.917 62.167 C 246.097 62.167,246.167 62.352,246.167 62.833 C 246.167 63.200,246.242 63.500,246.333 63.500 C 246.425 63.500,246.500 63.802,246.500 64.172 C 246.500 64.615,246.585 64.876,246.750 64.940 C 246.925 65.007,247.000 65.281,247.000 65.856 C 247.000 66.432,247.075 66.706,247.250 66.773 C 247.413 66.836,247.500 67.095,247.500 67.518 C 247.500 67.983,247.571 68.167,247.750 68.167 C 247.931 68.167,248.000 68.352,248.000 68.833 C 248.000 69.200,248.075 69.500,248.167 69.500 C 248.258 69.500,248.333 69.725,248.333 70.000 L 248.333 70.500 249.922 70.500 C 251.180 70.500,251.530 70.448,251.606 70.250 C 251.682 70.052,252.030 70.000,253.268 70.000 C 254.548 70.000,254.833 69.954,254.833 69.750 C 254.833 69.569,255.019 69.500,255.500 69.500 L 256.167 69.500 256.167 68.417 C 256.167 67.806,256.094 67.333,256.000 67.333 C 255.908 67.333,255.833 67.031,255.833 66.661 C 255.833 66.218,255.748 65.957,255.583 65.894 C 255.420 65.831,255.333 65.572,255.333 65.149 C 255.333 64.683,255.263 64.500,255.083 64.500 C 254.894 64.500,254.833 64.296,254.833 63.661 C 254.833 63.070,254.760 62.795,254.583 62.727 C 254.420 62.664,254.333 62.405,254.333 61.982 C 254.333 61.625,254.258 61.333,254.167 61.333 C 254.075 61.333,254.000 61.114,254.000 60.845 C 254.000 60.577,253.887 60.245,253.750 60.107 C 253.612 59.970,253.500 59.664,253.500 59.429 C 253.500 59.159,253.407 59.000,253.250 59.000 C 253.069 59.000,253.000 58.815,253.000 58.333 C 253.000 57.852,252.931 57.667,252.750 57.667 C 252.565 57.667,252.500 57.472,252.500 56.917 C 252.500 56.361,252.435 56.167,252.250 56.167 C 252.069 56.167,252.000 55.981,252.000 55.500 C 252.000 55.133,251.925 54.833,251.833 54.833 C 251.742 54.833,251.667 54.568,251.667 54.245 C 251.667 53.875,251.574 53.620,251.417 53.560 C 251.253 53.498,251.167 53.238,251.167 52.810 C 251.167 52.383,251.080 52.123,250.917 52.060 C 250.779 52.008,250.667 51.785,250.667 51.566 C 250.667 51.322,250.569 51.167,250.417 51.167 C 250.236 51.167,250.167 50.981,250.167 50.500 C 250.167 50.133,250.102 49.833,250.022 49.833 C 249.942 49.833,249.835 49.516,249.783 49.129 C 249.731 48.741,249.608 48.397,249.511 48.365 C 249.413 48.332,249.333 48.124,249.333 47.903 C 249.333 47.656,249.237 47.500,249.083 47.500 C 248.902 47.500,248.833 47.314,248.833 46.828 C 248.833 46.385,248.748 46.124,248.583 46.060 C 248.446 46.008,248.333 45.785,248.333 45.566 C 248.333 45.322,248.236 45.167,248.083 45.167 C 247.903 45.167,247.833 44.983,247.833 44.510 C 247.833 44.149,247.758 43.807,247.667 43.750 C 247.575 43.693,247.500 43.464,247.500 43.240 C 247.500 42.990,247.404 42.833,247.250 42.833 C 247.069 42.833,247.000 42.648,247.000 42.167 C 247.000 41.685,246.931 41.500,246.750 41.500 C 246.583 41.500,246.500 41.333,246.500 41.000 C 246.500 40.667,246.417 40.500,246.250 40.500 C 246.083 40.500,246.000 40.333,246.000 40.000 C 246.000 39.725,245.935 39.500,245.855 39.500 C 245.775 39.500,245.661 39.200,245.603 38.833 C 245.544 38.467,245.422 38.167,245.331 38.167 C 245.241 38.167,245.167 37.977,245.167 37.745 C 245.167 37.513,245.054 37.280,244.917 37.227 C 244.779 37.174,244.667 36.952,244.667 36.732 C 244.667 36.489,244.569 36.333,244.417 36.333 C 244.236 36.333,244.167 36.148,244.167 35.667 C 244.167 35.185,244.097 35.000,243.917 35.000 C 243.750 35.000,243.667 34.833,243.667 34.500 C 243.667 34.225,243.592 34.000,243.500 34.000 C 243.408 34.000,243.333 33.813,243.333 33.583 C 243.333 33.324,243.239 33.167,243.083 33.167 C 242.917 33.167,242.833 33.000,242.833 32.667 C 242.833 32.333,242.750 32.167,242.583 32.167 C 242.417 32.167,242.333 32.000,242.333 31.667 C 242.333 31.333,242.250 31.167,242.083 31.167 C 241.903 31.167,241.833 30.981,241.833 30.500 C 241.833 30.133,241.766 29.833,241.685 29.833 C 241.603 29.833,241.489 29.646,241.432 29.417 C 241.374 29.188,241.253 29.000,241.163 29.000 C 241.074 29.000,241.000 28.810,241.000 28.578 C 241.000 28.346,240.887 28.113,240.750 28.060 C 240.612 28.008,240.500 27.785,240.500 27.566 C 240.500 27.322,240.403 27.167,240.250 27.167 C 240.083 27.167,240.000 27.000,240.000 26.667 C 240.000 26.333,239.917 26.167,239.750 26.167 C 239.596 26.167,239.500 26.010,239.500 25.760 C 239.500 25.536,239.425 25.307,239.333 25.250 C 239.242 25.193,239.167 24.964,239.167 24.740 L 239.167 24.333 234.333 24.333 C 230.148 24.333,229.500 24.367,229.500 24.583 M233.825 31.667 C 233.901 31.667,234.011 31.854,234.068 32.083 C 234.126 32.313,234.247 32.500,234.337 32.500 C 234.426 32.500,234.500 32.690,234.500 32.922 C 234.500 33.154,234.612 33.387,234.750 33.440 C 234.893 33.494,235.000 33.743,235.000 34.018 C 235.000 34.335,235.085 34.500,235.250 34.500 C 235.406 34.500,235.500 34.657,235.500 34.917 C 235.500 35.146,235.575 35.333,235.667 35.333 C 235.758 35.333,235.833 35.523,235.833 35.755 C 235.833 35.987,235.946 36.220,236.083 36.273 C 236.238 36.332,236.333 36.586,236.333 36.940 C 236.333 37.293,236.428 37.547,236.583 37.606 C 236.721 37.659,236.833 37.884,236.833 38.106 C 236.833 38.329,236.946 38.554,237.083 38.606 C 237.221 38.659,237.333 38.882,237.333 39.101 C 237.333 39.345,237.431 39.500,237.583 39.500 C 237.764 39.500,237.833 39.685,237.833 40.167 C 237.833 40.533,237.908 40.833,238.000 40.833 C 238.092 40.833,238.167 41.058,238.167 41.333 C 238.167 41.667,238.250 41.833,238.417 41.833 C 238.573 41.833,238.667 41.991,238.667 42.255 C 238.667 42.487,238.779 42.720,238.917 42.773 C 239.072 42.832,239.167 43.086,239.167 43.440 C 239.167 43.793,239.262 44.047,239.417 44.106 C 239.554 44.159,239.667 44.382,239.667 44.601 C 239.667 44.821,239.742 45.000,239.833 45.000 C 239.925 45.000,240.000 45.211,240.000 45.468 C 240.000 45.726,240.110 46.082,240.245 46.260 C 240.379 46.438,240.492 46.829,240.495 47.130 C 240.498 47.459,240.600 47.715,240.750 47.773 C 240.887 47.826,241.000 48.051,241.000 48.273 C 241.000 48.495,241.112 48.720,241.250 48.773 C 241.405 48.832,241.500 49.086,241.500 49.440 C 241.500 49.793,241.595 50.047,241.750 50.106 C 241.913 50.169,242.000 50.428,242.000 50.851 C 242.000 51.208,242.075 51.500,242.167 51.500 C 242.258 51.500,242.333 51.612,242.333 51.750 C 242.333 51.939,242.129 52.000,241.495 52.000 C 240.903 52.000,240.628 52.074,240.560 52.250 C 240.478 52.465,239.729 52.500,235.227 52.500 C 230.725 52.500,229.976 52.535,229.894 52.750 C 229.813 52.961,229.279 53.000,226.511 53.000 L 223.224 53.000 223.298 52.500 C 223.339 52.220,223.473 52.000,223.602 52.000 C 223.761 52.000,223.833 51.791,223.833 51.333 C 223.833 50.852,223.903 50.667,224.083 50.667 C 224.248 50.667,224.333 50.502,224.333 50.184 C 224.333 49.910,224.441 49.661,224.583 49.606 C 224.721 49.554,224.833 49.363,224.833 49.182 C 224.833 49.001,224.908 48.807,225.000 48.750 C 225.092 48.693,225.167 48.351,225.167 47.990 C 225.167 47.517,225.237 47.333,225.417 47.333 C 225.572 47.333,225.667 47.176,225.667 46.917 C 225.667 46.657,225.761 46.500,225.917 46.500 C 226.083 46.500,226.167 46.333,226.167 46.000 C 226.167 45.667,226.250 45.500,226.417 45.500 C 226.572 45.500,226.667 45.343,226.667 45.083 C 226.667 44.854,226.742 44.667,226.833 44.667 C 226.925 44.667,227.000 44.329,227.000 43.917 C 227.000 43.361,227.065 43.167,227.250 43.167 C 227.406 43.167,227.500 43.009,227.500 42.750 C 227.500 42.491,227.594 42.333,227.750 42.333 C 227.917 42.333,228.000 42.167,228.000 41.833 C 228.000 41.500,228.083 41.333,228.250 41.333 C 228.403 41.333,228.500 41.178,228.500 40.934 C 228.500 40.715,228.612 40.492,228.750 40.440 C 228.887 40.387,229.000 40.154,229.000 39.922 C 229.000 39.690,229.075 39.500,229.167 39.500 C 229.258 39.500,229.333 39.321,229.333 39.101 C 229.333 38.882,229.446 38.659,229.583 38.606 C 229.721 38.554,229.833 38.321,229.833 38.089 C 229.833 37.825,229.927 37.667,230.083 37.667 C 230.236 37.667,230.333 37.511,230.333 37.268 C 230.333 37.048,230.446 36.826,230.583 36.773 C 230.721 36.720,230.833 36.487,230.833 36.255 C 230.833 36.023,230.908 35.833,231.000 35.833 C 231.092 35.833,231.167 35.608,231.167 35.333 C 231.167 35.000,231.250 34.833,231.417 34.833 C 231.572 34.833,231.667 34.676,231.667 34.417 C 231.667 34.157,231.761 34.000,231.917 34.000 C 232.083 34.000,232.167 33.833,232.167 33.500 C 232.167 33.167,232.250 33.000,232.417 33.000 C 232.569 33.000,232.667 32.845,232.667 32.601 C 232.667 32.382,232.779 32.159,232.917 32.106 C 233.054 32.054,233.167 31.821,233.167 31.589 C 233.167 31.357,233.242 31.167,233.333 31.167 C 233.425 31.167,233.513 30.960,233.529 30.708 C 233.546 30.447,233.586 30.555,233.622 30.958 C 233.657 31.348,233.748 31.667,233.825 31.667 M158.667 35.167 C 158.667 35.263,158.143 35.333,157.429 35.333 C 156.550 35.333,156.118 35.406,155.940 35.583 C 155.803 35.721,155.458 35.833,155.173 35.833 C 154.867 35.833,154.617 35.935,154.560 36.083 C 154.506 36.226,154.257 36.333,153.982 36.333 C 153.665 36.333,153.500 36.419,153.500 36.583 C 153.500 36.750,153.333 36.833,153.000 36.833 C 152.725 36.833,152.500 36.908,152.500 37.000 C 152.500 37.092,152.313 37.167,152.083 37.167 C 151.824 37.167,151.667 37.261,151.667 37.417 C 151.667 37.557,151.518 37.667,151.328 37.667 C 151.142 37.667,150.946 37.779,150.894 37.917 C 150.841 38.054,150.693 38.167,150.566 38.167 C 150.438 38.167,150.333 38.279,150.333 38.417 C 150.333 38.554,150.221 38.667,150.083 38.667 C 149.946 38.667,149.833 38.779,149.833 38.917 C 149.833 39.054,149.748 39.167,149.644 39.167 C 149.540 39.167,149.281 39.354,149.069 39.583 C 148.856 39.813,148.604 40.000,148.508 40.000 C 148.412 40.000,148.333 40.112,148.333 40.250 C 148.333 40.387,148.258 40.500,148.167 40.500 C 148.075 40.500,148.000 40.612,148.000 40.750 C 148.000 40.887,147.926 41.000,147.835 41.000 C 147.509 41.000,147.000 41.582,147.000 41.954 C 147.000 42.180,146.899 42.333,146.750 42.333 C 146.612 42.333,146.500 42.446,146.500 42.583 C 146.500 42.721,146.425 42.833,146.333 42.833 C 146.242 42.833,146.167 43.021,146.167 43.250 C 146.167 43.509,146.072 43.667,145.917 43.667 C 145.750 43.667,145.667 43.833,145.667 44.167 C 145.667 44.500,145.583 44.667,145.417 44.667 C 145.236 44.667,145.167 44.852,145.167 45.333 C 145.167 45.815,145.097 46.000,144.917 46.000 C 144.731 46.000,144.667 46.194,144.667 46.750 C 144.667 47.306,144.602 47.500,144.417 47.500 C 144.225 47.500,144.167 47.713,144.167 48.417 C 144.167 48.921,144.092 49.333,144.000 49.333 C 143.893 49.333,143.833 50.889,143.833 53.667 C 143.833 56.444,143.893 58.000,144.000 58.000 C 144.092 58.000,144.167 58.332,144.167 58.738 C 144.167 59.172,144.270 59.579,144.417 59.726 C 144.554 59.864,144.667 60.209,144.667 60.493 C 144.667 60.799,144.769 61.050,144.917 61.106 C 145.059 61.161,145.167 61.410,145.167 61.684 C 145.167 62.002,145.252 62.167,145.417 62.167 C 145.583 62.167,145.667 62.333,145.667 62.667 C 145.667 63.000,145.750 63.167,145.917 63.167 C 146.072 63.167,146.167 63.324,146.167 63.583 C 146.167 63.813,146.234 64.000,146.315 64.000 C 146.397 64.000,146.507 64.171,146.559 64.380 C 146.673 64.832,147.532 65.833,147.807 65.833 C 147.913 65.833,148.002 66.002,148.005 66.208 C 148.010 66.594,148.863 67.667,149.164 67.667 C 149.257 67.667,149.333 67.779,149.333 67.917 C 149.333 68.083,149.500 68.167,149.833 68.167 C 150.108 68.167,150.333 68.247,150.333 68.346 C 150.333 68.699,151.307 69.500,151.737 69.500 C 152.008 69.500,152.167 69.592,152.167 69.750 C 152.167 69.906,152.324 70.000,152.583 70.000 C 152.843 70.000,153.000 70.094,153.000 70.250 C 153.000 70.417,153.167 70.500,153.500 70.500 C 153.833 70.500,154.000 70.583,154.000 70.750 C 154.000 70.929,154.183 71.000,154.649 71.000 C 155.072 71.000,155.331 71.087,155.394 71.250 C 155.457 71.415,155.718 71.500,156.161 71.500 C 156.531 71.500,156.833 71.575,156.833 71.667 C 156.833 71.773,158.136 71.833,160.407 71.833 C 162.609 71.833,164.020 71.769,164.083 71.667 C 164.140 71.575,164.468 71.500,164.811 71.500 C 165.155 71.500,165.582 71.390,165.760 71.255 C 165.938 71.121,166.252 71.008,166.458 71.005 C 166.678 71.002,166.833 70.897,166.833 70.750 C 166.833 70.583,167.000 70.500,167.333 70.500 C 167.667 70.500,167.833 70.417,167.833 70.250 C 167.833 70.094,167.991 70.000,168.250 70.000 C 168.509 70.000,168.667 69.906,168.667 69.750 C 168.667 69.583,168.833 69.500,169.167 69.500 C 169.442 69.500,169.667 69.425,169.667 69.333 C 169.667 69.242,169.779 69.167,169.917 69.167 C 170.054 69.167,170.167 69.054,170.167 68.917 C 170.167 68.761,170.324 68.667,170.583 68.667 C 170.843 68.667,171.000 68.572,171.000 68.417 C 171.000 68.279,171.112 68.167,171.250 68.167 C 171.387 68.167,171.500 68.054,171.500 67.917 C 171.500 67.779,171.581 67.667,171.679 67.667 C 171.913 67.667,172.833 66.746,172.833 66.513 C 172.833 66.414,172.946 66.333,173.083 66.333 C 173.239 66.333,173.333 66.176,173.333 65.917 C 173.333 65.657,173.428 65.500,173.583 65.500 C 173.721 65.500,173.833 65.396,173.833 65.268 C 173.833 65.140,173.946 64.992,174.083 64.940 C 174.221 64.887,174.333 64.654,174.333 64.422 C 174.333 64.158,174.427 64.000,174.583 64.000 C 174.721 64.000,174.833 63.887,174.833 63.750 C 174.833 63.612,174.908 63.500,175.000 63.500 C 175.092 63.500,175.167 63.313,175.167 63.083 C 175.167 62.824,175.261 62.667,175.417 62.667 C 175.583 62.667,175.667 62.500,175.667 62.167 C 175.667 61.833,175.750 61.667,175.917 61.667 C 176.097 61.667,176.167 61.481,176.167 61.000 C 176.167 60.519,176.236 60.333,176.417 60.333 C 176.597 60.333,176.667 60.148,176.667 59.667 C 176.667 59.300,176.742 59.000,176.833 59.000 C 176.931 59.000,177.000 58.417,177.000 57.583 C 177.000 56.435,177.047 56.167,177.250 56.167 C 177.462 56.167,177.500 55.750,177.500 53.417 C 177.500 51.083,177.462 50.667,177.250 50.667 C 177.052 50.667,177.000 50.426,177.000 49.500 C 177.000 48.833,176.929 48.333,176.833 48.333 C 176.742 48.333,176.667 47.956,176.667 47.495 C 176.667 46.903,176.593 46.628,176.417 46.560 C 176.279 46.508,176.167 46.283,176.167 46.060 C 176.167 45.838,176.054 45.613,175.917 45.560 C 175.779 45.508,175.667 45.285,175.667 45.066 C 175.667 44.822,175.569 44.667,175.417 44.667 C 175.250 44.667,175.167 44.500,175.167 44.167 C 175.167 43.892,175.092 43.667,175.000 43.667 C 174.908 43.667,174.833 43.479,174.833 43.250 C 174.833 42.991,174.739 42.833,174.583 42.833 C 174.439 42.833,174.333 42.682,174.333 42.475 C 174.333 42.114,173.333 41.000,173.008 41.000 C 172.912 41.000,172.833 40.887,172.833 40.750 C 172.833 40.612,172.758 40.500,172.667 40.500 C 172.575 40.500,172.500 40.387,172.500 40.250 C 172.500 40.112,172.387 40.000,172.250 40.000 C 172.112 40.000,172.000 39.887,172.000 39.750 C 172.000 39.612,171.887 39.500,171.750 39.500 C 171.612 39.500,171.500 39.425,171.500 39.333 C 171.500 39.242,171.387 39.167,171.250 39.167 C 171.112 39.167,171.000 39.088,171.000 38.992 C 171.000 38.676,169.890 37.667,169.543 37.667 C 169.355 37.667,169.159 37.554,169.106 37.417 C 169.054 37.279,168.858 37.167,168.672 37.167 C 168.486 37.167,168.333 37.092,168.333 37.000 C 168.333 36.908,168.108 36.833,167.833 36.833 C 167.500 36.833,167.333 36.750,167.333 36.583 C 167.333 36.431,167.178 36.333,166.934 36.333 C 166.715 36.333,166.492 36.221,166.440 36.083 C 166.377 35.920,166.117 35.833,165.690 35.833 C 165.262 35.833,165.002 35.747,164.940 35.583 C 164.868 35.396,164.569 35.333,163.755 35.333 C 163.141 35.333,162.667 35.261,162.667 35.167 C 162.667 35.065,161.889 35.000,160.667 35.000 C 159.444 35.000,158.667 35.065,158.667 35.167 M369.750 35.167 C 369.693 35.258,369.162 35.333,368.568 35.333 C 367.763 35.333,367.465 35.397,367.394 35.583 C 367.331 35.746,367.072 35.833,366.649 35.833 C 366.183 35.833,366.000 35.904,366.000 36.083 C 366.000 36.264,365.815 36.333,365.333 36.333 C 364.852 36.333,364.667 36.403,364.667 36.583 C 364.667 36.735,364.512 36.833,364.274 36.833 C 364.059 36.833,363.680 37.021,363.432 37.250 C 363.185 37.479,362.837 37.667,362.658 37.667 C 362.479 37.667,362.333 37.779,362.333 37.917 C 362.333 38.054,362.221 38.167,362.083 38.167 C 361.946 38.167,361.833 38.279,361.833 38.417 C 361.833 38.554,361.721 38.667,361.583 38.667 C 361.446 38.667,361.333 38.779,361.333 38.917 C 361.333 39.058,361.184 39.167,360.992 39.167 C 360.536 39.167,359.500 40.191,359.500 40.642 C 359.500 40.839,359.420 41.000,359.321 41.000 C 359.091 41.000,358.667 41.424,358.667 41.655 C 358.667 41.753,358.554 41.833,358.417 41.833 C 358.250 41.833,358.167 42.000,358.167 42.333 C 358.167 42.667,358.083 42.833,357.917 42.833 C 357.761 42.833,357.667 42.991,357.667 43.250 C 357.667 43.509,357.572 43.667,357.417 43.667 C 357.250 43.667,357.167 43.833,357.167 44.167 C 357.167 44.500,357.083 44.667,356.917 44.667 C 356.761 44.667,356.667 44.824,356.667 45.083 C 356.667 45.313,356.592 45.500,356.500 45.500 C 356.408 45.500,356.333 45.837,356.333 46.250 C 356.333 46.806,356.269 47.000,356.083 47.000 C 355.904 47.000,355.833 47.183,355.833 47.649 C 355.833 48.072,355.746 48.331,355.583 48.394 C 355.386 48.469,355.333 48.812,355.333 50.007 C 355.333 51.133,355.269 51.588,355.083 51.774 C 354.898 51.959,354.833 52.412,354.833 53.517 C 354.833 54.691,354.887 55.031,355.083 55.106 C 355.282 55.183,355.333 55.539,355.333 56.851 C 355.333 58.206,355.378 58.500,355.583 58.500 C 355.775 58.500,355.833 58.713,355.833 59.417 C 355.833 60.120,355.891 60.333,356.083 60.333 C 356.264 60.333,356.333 60.519,356.333 61.000 C 356.333 61.367,356.408 61.667,356.500 61.667 C 356.592 61.667,356.667 61.857,356.667 62.089 C 356.667 62.321,356.779 62.554,356.917 62.606 C 357.054 62.659,357.167 62.882,357.167 63.101 C 357.167 63.345,357.264 63.500,357.417 63.500 C 357.573 63.500,357.667 63.658,357.667 63.922 C 357.667 64.154,357.779 64.387,357.917 64.440 C 358.054 64.492,358.167 64.640,358.167 64.768 C 358.167 64.896,358.279 65.000,358.417 65.000 C 358.561 65.000,358.667 65.151,358.667 65.356 C 358.667 65.552,358.854 65.886,359.083 66.098 C 359.313 66.310,359.500 66.563,359.500 66.659 C 359.500 66.755,359.613 66.833,359.750 66.833 C 359.887 66.833,360.000 66.946,360.000 67.083 C 360.000 67.221,360.080 67.333,360.179 67.333 C 360.409 67.333,360.833 67.757,360.833 67.988 C 360.833 68.086,360.927 68.170,361.042 68.174 C 361.156 68.178,361.434 68.403,361.659 68.674 C 361.884 68.945,362.213 69.167,362.390 69.167 C 362.567 69.167,362.886 69.354,363.098 69.583 C 363.310 69.813,363.638 70.000,363.825 70.000 C 364.018 70.000,364.167 70.109,364.167 70.250 C 364.167 70.415,364.331 70.500,364.649 70.500 C 364.924 70.500,365.172 70.607,365.227 70.750 C 365.286 70.905,365.540 71.000,365.894 71.000 C 366.247 71.000,366.501 71.095,366.560 71.250 C 366.628 71.426,366.903 71.500,367.495 71.500 C 367.956 71.500,368.333 71.575,368.333 71.667 C 368.333 71.773,369.667 71.833,372.000 71.833 C 374.333 71.833,375.667 71.773,375.667 71.667 C 375.667 71.575,375.967 71.500,376.333 71.500 C 376.815 71.500,377.000 71.431,377.000 71.250 C 377.000 71.069,377.186 71.000,377.672 71.000 C 378.115 71.000,378.376 70.915,378.440 70.750 C 378.492 70.612,378.715 70.500,378.934 70.500 C 379.178 70.500,379.333 70.403,379.333 70.250 C 379.333 70.083,379.500 70.000,379.833 70.000 C 380.167 70.000,380.333 69.917,380.333 69.750 C 380.333 69.612,380.446 69.500,380.583 69.500 C 380.721 69.500,380.833 69.425,380.833 69.333 C 380.833 69.242,381.021 69.167,381.250 69.167 C 381.509 69.167,381.667 69.072,381.667 68.917 C 381.667 68.779,381.779 68.667,381.917 68.667 C 382.054 68.667,382.167 68.554,382.167 68.417 C 382.167 68.279,382.279 68.167,382.417 68.167 C 382.554 68.167,382.667 68.054,382.667 67.917 C 382.667 67.779,382.747 67.667,382.845 67.667 C 383.076 67.667,383.500 67.243,383.500 67.012 C 383.500 66.914,383.613 66.833,383.750 66.833 C 383.887 66.833,384.000 66.721,384.000 66.583 C 384.000 66.446,384.113 66.333,384.250 66.333 C 384.387 66.333,384.500 66.221,384.500 66.083 C 384.500 65.946,384.585 65.833,384.690 65.833 C 384.970 65.833,385.322 65.305,385.328 64.875 C 385.331 64.655,385.437 64.500,385.583 64.500 C 385.721 64.500,385.833 64.387,385.833 64.250 C 385.833 64.112,385.946 64.000,386.083 64.000 C 386.236 64.000,386.333 63.845,386.333 63.601 C 386.333 63.382,386.446 63.159,386.583 63.106 C 386.721 63.054,386.833 62.821,386.833 62.589 C 386.833 62.325,386.927 62.167,387.083 62.167 C 387.237 62.167,387.333 62.010,387.333 61.760 C 387.333 61.536,387.408 61.307,387.500 61.250 C 387.592 61.193,387.667 60.851,387.667 60.490 C 387.667 60.017,387.737 59.833,387.917 59.833 C 388.109 59.833,388.167 59.620,388.167 58.917 C 388.167 58.213,388.225 58.000,388.417 58.000 C 388.633 58.000,388.667 57.388,388.667 53.495 C 388.667 49.644,388.630 48.976,388.417 48.894 C 388.237 48.825,388.167 48.544,388.167 47.899 C 388.167 47.211,388.108 47.000,387.917 47.000 C 387.750 47.000,387.667 46.833,387.667 46.500 C 387.667 46.225,387.592 46.000,387.500 46.000 C 387.408 46.000,387.333 45.780,387.333 45.512 C 387.333 45.243,387.221 44.911,387.083 44.774 C 386.946 44.636,386.833 44.417,386.833 44.287 C 386.833 43.991,386.274 43.333,386.022 43.333 C 385.918 43.333,385.833 43.108,385.833 42.833 C 385.833 42.500,385.750 42.333,385.583 42.333 C 385.446 42.333,385.333 42.221,385.333 42.083 C 385.333 41.946,385.258 41.833,385.167 41.833 C 385.075 41.833,385.000 41.681,385.000 41.495 C 385.000 41.309,384.887 41.113,384.750 41.060 C 384.613 41.008,384.500 40.860,384.500 40.732 C 384.500 40.604,384.387 40.500,384.250 40.500 C 384.113 40.500,384.000 40.387,384.000 40.250 C 384.000 40.112,383.887 40.000,383.750 40.000 C 383.613 40.000,383.500 39.900,383.500 39.778 C 383.500 39.656,383.313 39.456,383.083 39.333 C 382.854 39.211,382.667 39.011,382.667 38.889 C 382.667 38.753,382.472 38.667,382.167 38.667 C 381.833 38.667,381.667 38.583,381.667 38.417 C 381.667 38.279,381.554 38.167,381.417 38.167 C 381.279 38.167,381.167 38.093,381.167 38.002 C 381.167 37.676,380.585 37.167,380.213 37.167 C 380.004 37.167,379.833 37.092,379.833 37.000 C 379.833 36.908,379.654 36.833,379.434 36.833 C 379.215 36.833,378.992 36.721,378.940 36.583 C 378.876 36.418,378.615 36.333,378.172 36.333 C 377.686 36.333,377.500 36.264,377.500 36.083 C 377.500 35.904,377.317 35.833,376.851 35.833 C 376.428 35.833,376.169 35.746,376.106 35.583 C 376.035 35.396,375.736 35.333,374.922 35.333 C 374.307 35.333,373.833 35.261,373.833 35.167 C 373.833 35.065,373.059 35.000,371.843 35.000 C 370.696 35.000,369.809 35.071,369.750 35.167 M134.116 36.333 C 134.012 36.608,133.868 36.833,133.797 36.833 C 133.725 36.833,133.667 37.133,133.667 37.500 C 133.667 37.981,133.597 38.167,133.417 38.167 C 133.237 38.167,133.167 38.350,133.167 38.816 C 133.167 39.238,133.080 39.498,132.917 39.560 C 132.752 39.624,132.667 39.885,132.667 40.328 C 132.667 40.814,132.598 41.000,132.417 41.000 C 132.264 41.000,132.167 41.155,132.167 41.399 C 132.167 41.618,132.054 41.841,131.917 41.894 C 131.752 41.957,131.667 42.218,131.667 42.661 C 131.667 43.031,131.592 43.333,131.500 43.333 C 131.408 43.333,131.333 43.633,131.333 44.000 C 131.333 44.481,131.264 44.667,131.083 44.667 C 130.903 44.667,130.833 44.852,130.833 45.333 C 130.833 45.815,130.764 46.000,130.583 46.000 C 130.398 46.000,130.333 46.194,130.333 46.750 C 130.333 47.306,130.269 47.500,130.083 47.500 C 129.928 47.500,129.833 47.657,129.833 47.917 C 129.833 48.146,129.758 48.333,129.667 48.333 C 129.575 48.333,129.500 48.625,129.500 48.982 C 129.500 49.405,129.413 49.664,129.250 49.727 C 129.085 49.790,129.000 50.051,129.000 50.495 C 129.000 50.981,128.931 51.167,128.750 51.167 C 128.569 51.167,128.500 51.352,128.500 51.833 C 128.500 52.315,128.431 52.500,128.250 52.500 C 128.071 52.500,128.000 52.683,128.000 53.149 C 128.000 53.572,127.913 53.831,127.750 53.894 C 127.612 53.946,127.500 54.179,127.500 54.411 C 127.500 54.643,127.425 54.833,127.333 54.833 C 127.242 54.833,127.167 55.133,127.167 55.500 C 127.167 55.981,127.097 56.167,126.917 56.167 C 126.731 56.167,126.667 56.361,126.667 56.917 C 126.667 57.472,126.602 57.667,126.417 57.667 C 126.237 57.667,126.167 57.850,126.167 58.316 C 126.167 58.738,126.080 58.998,125.917 59.060 C 125.760 59.120,125.667 59.375,125.667 59.745 C 125.667 60.068,125.592 60.333,125.500 60.333 C 125.408 60.333,125.333 60.671,125.333 61.083 C 125.333 61.639,125.269 61.833,125.083 61.833 C 124.946 61.833,124.833 61.914,124.833 62.012 C 124.833 62.110,124.721 62.078,124.583 61.940 C 124.446 61.803,124.333 61.420,124.333 61.090 C 124.333 60.710,124.242 60.454,124.083 60.394 C 123.946 60.341,123.833 60.118,123.833 59.899 C 123.833 59.655,123.736 59.500,123.583 59.500 C 123.398 59.500,123.333 59.306,123.333 58.750 C 123.333 58.194,123.269 58.000,123.083 58.000 C 122.903 58.000,122.833 57.815,122.833 57.333 C 122.833 56.967,122.758 56.667,122.667 56.667 C 122.575 56.667,122.500 56.367,122.500 56.000 C 122.500 55.519,122.431 55.333,122.250 55.333 C 122.069 55.333,122.000 55.148,122.000 54.667 C 122.000 54.185,121.931 54.000,121.750 54.000 C 121.569 54.000,121.500 53.814,121.500 53.328 C 121.500 52.885,121.415 52.624,121.250 52.560 C 121.087 52.498,121.000 52.238,121.000 51.816 C 121.000 51.459,120.925 51.167,120.833 51.167 C 120.742 51.167,120.667 50.947,120.667 50.679 C 120.667 50.410,120.554 50.078,120.417 49.940 C 120.279 49.803,120.167 49.498,120.167 49.262 C 120.167 48.992,120.074 48.833,119.917 48.833 C 119.736 48.833,119.667 48.648,119.667 48.167 C 119.667 47.685,119.597 47.500,119.417 47.500 C 119.231 47.500,119.167 47.306,119.167 46.750 C 119.167 46.194,119.102 46.000,118.917 46.000 C 118.736 46.000,118.667 45.815,118.667 45.333 C 118.667 44.967,118.592 44.667,118.500 44.667 C 118.408 44.667,118.333 44.402,118.333 44.078 C 118.333 43.709,118.240 43.454,118.083 43.394 C 117.920 43.331,117.833 43.071,117.833 42.644 C 117.833 42.216,117.747 41.956,117.583 41.894 C 117.420 41.831,117.333 41.572,117.333 41.149 C 117.333 40.683,117.263 40.500,117.083 40.500 C 116.903 40.500,116.833 40.315,116.833 39.833 C 116.833 39.467,116.758 39.167,116.667 39.167 C 116.575 39.167,116.500 38.983,116.500 38.758 C 116.500 38.534,116.395 38.290,116.266 38.217 C 116.137 38.143,116.006 37.896,115.974 37.667 C 115.901 37.139,113.427 36.930,112.947 37.410 C 112.758 37.599,112.334 37.667,111.345 37.667 C 110.261 37.667,110.000 37.715,110.000 37.917 C 110.000 38.083,109.833 38.167,109.500 38.167 C 108.921 38.167,108.701 39.729,109.250 39.940 C 109.413 40.002,109.500 40.262,109.500 40.684 C 109.500 41.150,109.571 41.333,109.750 41.333 C 109.931 41.333,110.000 41.519,110.000 42.005 C 110.000 42.449,110.085 42.710,110.250 42.773 C 110.403 42.832,110.500 43.084,110.500 43.425 C 110.500 43.730,110.575 44.027,110.667 44.083 C 110.758 44.140,110.833 44.402,110.833 44.665 C 110.833 44.928,110.946 45.255,111.083 45.393 C 111.221 45.530,111.333 45.876,111.333 46.160 C 111.333 46.466,111.435 46.716,111.583 46.773 C 111.747 46.836,111.833 47.095,111.833 47.523 C 111.833 47.951,111.920 48.210,112.083 48.273 C 112.221 48.326,112.333 48.548,112.333 48.768 C 112.333 49.011,112.431 49.167,112.583 49.167 C 112.769 49.167,112.833 49.361,112.833 49.917 C 112.833 50.329,112.908 50.667,113.000 50.667 C 113.092 50.667,113.167 50.967,113.167 51.333 C 113.167 51.815,113.236 52.000,113.417 52.000 C 113.597 52.000,113.667 52.185,113.667 52.667 C 113.667 53.148,113.736 53.333,113.917 53.333 C 114.098 53.333,114.167 53.519,114.167 54.005 C 114.167 54.449,114.252 54.710,114.417 54.773 C 114.580 54.836,114.667 55.095,114.667 55.518 C 114.667 55.875,114.742 56.167,114.833 56.167 C 114.925 56.167,115.000 56.386,115.000 56.655 C 115.000 56.923,115.112 57.255,115.250 57.393 C 115.388 57.530,115.500 57.868,115.500 58.143 C 115.500 58.418,115.612 58.755,115.750 58.893 C 115.888 59.030,116.000 59.298,116.000 59.488 C 116.000 59.684,116.108 59.833,116.250 59.833 C 116.435 59.833,116.500 60.028,116.500 60.583 C 116.500 61.139,116.565 61.333,116.750 61.333 C 116.931 61.333,117.000 61.519,117.000 62.000 C 117.000 62.367,117.075 62.667,117.167 62.667 C 117.258 62.667,117.333 62.932,117.333 63.255 C 117.333 63.625,117.426 63.880,117.583 63.940 C 117.746 64.002,117.833 64.262,117.833 64.684 C 117.833 65.150,117.904 65.333,118.083 65.333 C 118.264 65.333,118.333 65.519,118.333 66.005 C 118.333 66.449,118.418 66.710,118.583 66.773 C 118.746 66.836,118.833 67.095,118.833 67.518 C 118.833 67.875,118.908 68.167,119.000 68.167 C 119.092 68.167,119.167 68.386,119.167 68.655 C 119.167 68.923,119.279 69.255,119.417 69.393 C 119.554 69.530,119.667 69.723,119.667 69.821 C 119.667 69.944,121.174 70.000,124.500 70.000 L 129.333 70.000 129.333 69.333 C 129.333 68.852,129.403 68.667,129.583 68.667 C 129.763 68.667,129.833 68.483,129.833 68.018 C 129.833 67.595,129.920 67.336,130.083 67.273 C 130.221 67.220,130.333 66.987,130.333 66.755 C 130.333 66.491,130.427 66.333,130.583 66.333 C 130.764 66.333,130.833 66.148,130.833 65.667 C 130.833 65.300,130.908 65.000,131.000 65.000 C 131.092 65.000,131.167 64.662,131.167 64.250 C 131.167 63.694,131.231 63.500,131.417 63.500 C 131.572 63.500,131.667 63.343,131.667 63.083 C 131.667 62.824,131.761 62.667,131.917 62.667 C 132.096 62.667,132.167 62.483,132.167 62.018 C 132.167 61.595,132.254 61.336,132.417 61.273 C 132.582 61.210,132.667 60.949,132.667 60.505 C 132.667 60.019,132.736 59.833,132.917 59.833 C 133.071 59.833,133.167 59.677,133.167 59.427 C 133.167 59.203,133.242 58.973,133.333 58.917 C 133.425 58.860,133.500 58.518,133.500 58.157 C 133.500 57.684,133.570 57.500,133.750 57.500 C 133.931 57.500,134.000 57.315,134.000 56.833 C 134.000 56.352,134.069 56.167,134.250 56.167 C 134.415 56.167,134.500 56.002,134.500 55.684 C 134.500 55.410,134.607 55.161,134.750 55.106 C 134.907 55.046,135.000 54.791,135.000 54.422 C 135.000 54.098,135.075 53.833,135.167 53.833 C 135.258 53.833,135.333 53.533,135.333 53.167 C 135.333 52.685,135.403 52.500,135.583 52.500 C 135.750 52.500,135.833 52.333,135.833 52.000 C 135.833 51.667,135.917 51.500,136.083 51.500 C 136.263 51.500,136.333 51.317,136.333 50.851 C 136.333 50.428,136.420 50.169,136.583 50.106 C 136.738 50.047,136.833 49.793,136.833 49.440 C 136.833 49.086,136.928 48.832,137.083 48.773 C 137.248 48.710,137.333 48.449,137.333 48.005 C 137.333 47.636,137.408 47.333,137.500 47.333 C 137.592 47.333,137.667 47.146,137.667 46.917 C 137.667 46.657,137.761 46.500,137.917 46.500 C 138.102 46.500,138.167 46.306,138.167 45.750 C 138.167 45.194,138.231 45.000,138.417 45.000 C 138.597 45.000,138.667 44.815,138.667 44.333 C 138.667 43.852,138.736 43.667,138.917 43.667 C 139.071 43.667,139.167 43.510,139.167 43.260 C 139.167 43.036,139.242 42.807,139.333 42.750 C 139.425 42.693,139.500 42.351,139.500 41.990 C 139.500 41.517,139.570 41.333,139.750 41.333 C 139.931 41.333,140.000 41.148,140.000 40.667 C 140.000 40.185,140.069 40.000,140.250 40.000 C 140.417 40.000,140.500 39.833,140.500 39.500 C 140.500 39.167,140.583 39.000,140.750 39.000 C 140.931 39.000,141.000 38.815,141.000 38.333 C 141.000 37.967,141.075 37.667,141.167 37.667 C 141.258 37.667,141.333 37.479,141.333 37.250 C 141.333 36.841,141.310 36.833,140.018 36.833 C 139.002 36.833,138.680 36.776,138.606 36.583 C 138.531 36.386,138.182 36.333,136.940 36.333 C 135.697 36.333,135.349 36.281,135.273 36.083 C 135.093 35.615,134.324 35.781,134.116 36.333 M308.167 36.083 C 308.167 36.292,307.824 36.333,306.083 36.333 C 304.343 36.333,304.000 36.374,304.000 36.583 C 304.000 36.782,303.759 36.833,302.833 36.833 L 301.667 36.833 301.667 37.422 C 301.667 37.791,301.760 38.046,301.917 38.106 C 302.134 38.190,302.167 39.150,302.167 45.351 C 302.167 51.595,302.135 52.500,301.917 52.500 C 301.750 52.500,301.667 52.667,301.667 53.000 C 301.667 53.333,301.583 53.500,301.417 53.500 C 301.261 53.500,301.167 53.657,301.167 53.917 C 301.167 54.176,301.072 54.333,300.917 54.333 C 300.755 54.333,300.667 54.496,300.667 54.794 C 300.667 55.090,300.518 55.366,300.250 55.567 C 300.012 55.746,299.833 56.048,299.833 56.273 C 299.833 56.512,299.735 56.667,299.583 56.667 C 299.417 56.667,299.333 56.833,299.333 57.167 C 299.333 57.442,299.248 57.667,299.145 57.667 C 298.865 57.667,298.333 58.338,298.333 58.692 C 298.333 58.861,298.258 59.000,298.167 59.000 C 298.075 59.000,298.000 59.112,298.000 59.250 C 298.000 59.387,297.926 59.500,297.835 59.500 C 297.509 59.500,297.000 60.082,297.000 60.454 C 297.000 60.680,296.899 60.833,296.750 60.833 C 296.612 60.833,296.500 60.946,296.500 61.083 C 296.500 61.221,296.425 61.333,296.333 61.333 C 296.242 61.333,296.167 61.446,296.167 61.583 C 296.167 61.721,296.054 61.833,295.917 61.833 C 295.779 61.833,295.667 61.908,295.667 62.000 C 295.667 62.092,295.494 62.167,295.284 62.167 C 295.063 62.167,294.728 62.375,294.492 62.660 C 294.267 62.931,293.915 63.156,293.708 63.160 C 293.489 63.164,293.333 63.271,293.333 63.417 C 293.333 63.622,293.037 63.667,291.667 63.667 C 290.296 63.667,290.000 63.622,290.000 63.417 C 290.000 63.261,289.843 63.167,289.583 63.167 C 289.324 63.167,289.167 63.072,289.167 62.917 C 289.167 62.779,289.054 62.667,288.917 62.667 C 288.779 62.667,288.667 62.554,288.667 62.417 C 288.667 62.279,288.554 62.167,288.417 62.167 C 288.261 62.167,288.167 62.009,288.167 61.750 C 288.167 61.491,288.072 61.333,287.917 61.333 C 287.779 61.333,287.667 61.221,287.667 61.083 C 287.667 60.946,287.592 60.833,287.500 60.833 C 287.408 60.833,287.333 60.614,287.333 60.345 C 287.333 60.077,287.221 59.745,287.083 59.607 C 286.946 59.470,286.833 59.087,286.833 58.757 C 286.833 58.377,286.742 58.121,286.583 58.060 C 286.397 57.989,286.333 57.692,286.333 56.899 C 286.333 56.063,286.279 55.833,286.083 55.833 C 285.865 55.833,285.833 54.872,285.833 48.184 C 285.833 41.539,285.866 40.523,286.083 40.440 C 286.286 40.362,286.333 39.967,286.333 38.339 L 286.333 36.333 282.917 36.333 L 279.500 36.333 279.500 37.000 C 279.500 37.481,279.431 37.667,279.250 37.667 C 279.043 37.667,279.000 37.980,279.000 39.482 C 279.000 40.942,278.951 41.316,278.750 41.394 C 278.533 41.477,278.500 42.533,278.500 49.495 C 278.500 56.499,278.531 57.500,278.750 57.500 C 278.951 57.500,279.000 57.760,279.000 58.839 C 279.000 59.875,279.056 60.199,279.250 60.273 C 279.429 60.342,279.500 60.623,279.500 61.268 C 279.500 61.762,279.575 62.167,279.667 62.167 C 279.758 62.167,279.833 62.386,279.833 62.655 C 279.833 62.923,279.946 63.255,280.083 63.393 C 280.221 63.530,280.333 63.836,280.333 64.071 C 280.333 64.341,280.426 64.500,280.583 64.500 C 280.750 64.500,280.833 64.667,280.833 65.000 C 280.833 65.333,280.917 65.500,281.083 65.500 C 281.228 65.500,281.333 65.651,281.333 65.856 C 281.333 66.052,281.521 66.386,281.750 66.598 C 281.979 66.810,282.167 67.063,282.167 67.159 C 282.167 67.255,282.279 67.333,282.417 67.333 C 282.554 67.333,282.667 67.408,282.667 67.500 C 282.667 67.592,282.779 67.667,282.917 67.667 C 283.054 67.667,283.167 67.779,283.167 67.917 C 283.167 68.054,283.279 68.167,283.417 68.167 C 283.554 68.167,283.667 68.247,283.667 68.346 C 283.667 68.699,284.641 69.500,285.071 69.500 C 285.341 69.500,285.500 69.592,285.500 69.750 C 285.500 69.906,285.657 70.000,285.917 70.000 C 286.176 70.000,286.333 70.094,286.333 70.250 C 286.333 70.434,286.526 70.500,287.066 70.500 C 287.563 70.500,287.828 70.580,287.894 70.750 C 287.974 70.959,288.478 71.000,291.000 71.000 C 293.522 71.000,294.026 70.959,294.106 70.750 C 294.161 70.607,294.410 70.500,294.684 70.500 C 295.002 70.500,295.167 70.415,295.167 70.250 C 295.167 70.094,295.324 70.000,295.583 70.000 C 295.843 70.000,296.000 69.906,296.000 69.750 C 296.000 69.583,296.167 69.500,296.500 69.500 C 296.775 69.500,297.000 69.425,297.000 69.333 C 297.000 69.242,297.112 69.167,297.250 69.167 C 297.387 69.167,297.500 69.054,297.500 68.917 C 297.500 68.776,297.649 68.667,297.839 68.667 C 298.025 68.667,298.220 68.554,298.273 68.417 C 298.326 68.279,298.473 68.167,298.601 68.167 C 298.729 68.167,298.833 68.054,298.833 67.917 C 298.833 67.779,298.903 67.667,298.987 67.667 C 299.187 67.667,300.167 66.687,300.167 66.487 C 300.167 66.403,300.279 66.333,300.417 66.333 C 300.572 66.333,300.667 66.176,300.667 65.917 C 300.667 65.657,300.761 65.500,300.917 65.500 C 301.054 65.500,301.167 65.387,301.167 65.250 C 301.167 65.112,301.279 65.000,301.417 65.000 C 301.554 65.000,301.667 64.887,301.667 64.750 C 301.667 64.612,301.742 64.500,301.833 64.500 C 301.925 64.500,302.000 64.275,302.000 64.000 C 302.000 63.667,302.083 63.500,302.250 63.500 C 302.465 63.500,302.500 64.028,302.500 67.250 L 302.500 71.000 306.417 71.000 L 310.333 71.000 310.333 66.677 C 310.333 63.974,310.271 62.314,310.167 62.250 C 310.060 62.184,310.000 59.691,310.000 55.318 C 310.000 49.402,309.967 48.477,309.750 48.394 C 309.534 48.311,309.500 47.479,309.500 42.316 C 309.500 37.109,309.468 36.333,309.250 36.333 C 309.112 36.333,309.000 36.221,309.000 36.083 C 309.000 35.928,308.843 35.833,308.583 35.833 C 308.324 35.833,308.167 35.928,308.167 36.083 M321.560 36.083 C 321.483 36.284,321.109 36.333,319.649 36.333 L 317.833 36.333 317.833 38.589 C 317.833 40.439,317.878 40.861,318.083 40.940 C 318.300 41.023,318.333 41.974,318.333 48.101 C 318.333 54.270,318.365 55.167,318.583 55.167 C 318.801 55.167,318.833 56.000,318.833 61.667 C 318.833 65.889,318.892 68.167,319.000 68.167 C 319.098 68.167,319.167 68.750,319.167 69.583 L 319.167 71.000 321.000 71.000 C 322.500 71.000,322.833 70.956,322.833 70.755 C 322.833 70.558,323.193 70.502,324.708 70.464 L 326.583 70.417 326.629 67.788 C 326.668 65.557,326.637 65.145,326.421 65.062 C 326.040 64.916,326.036 54.833,326.417 54.833 C 326.583 54.833,326.667 54.667,326.667 54.333 C 326.667 54.058,326.742 53.833,326.833 53.833 C 326.925 53.833,327.000 53.646,327.000 53.417 C 327.000 53.157,327.094 53.000,327.250 53.000 C 327.417 53.000,327.500 52.833,327.500 52.500 C 327.500 52.167,327.583 52.000,327.750 52.000 C 327.906 52.000,328.000 51.843,328.000 51.583 C 328.000 51.324,328.094 51.167,328.250 51.167 C 328.387 51.167,328.500 51.062,328.500 50.934 C 328.500 50.807,328.612 50.659,328.750 50.606 C 328.887 50.554,329.000 50.321,329.000 50.089 C 329.000 49.857,329.075 49.667,329.167 49.667 C 329.258 49.667,329.333 49.479,329.333 49.250 C 329.333 48.991,329.428 48.833,329.583 48.833 C 329.721 48.833,329.833 48.721,329.833 48.583 C 329.833 48.446,329.946 48.333,330.083 48.333 C 330.250 48.333,330.333 48.167,330.333 47.833 C 330.333 47.528,330.420 47.333,330.555 47.333 C 330.677 47.333,330.877 47.146,331.000 46.917 C 331.123 46.688,331.323 46.500,331.445 46.500 C 331.580 46.500,331.667 46.305,331.667 46.000 C 331.667 45.667,331.750 45.500,331.917 45.500 C 332.054 45.500,332.167 45.387,332.167 45.250 C 332.167 45.112,332.279 45.000,332.417 45.000 C 332.554 45.000,332.667 44.925,332.667 44.833 C 332.667 44.742,332.779 44.667,332.917 44.667 C 333.054 44.667,333.167 44.554,333.167 44.417 C 333.167 44.276,333.315 44.167,333.505 44.167 C 333.691 44.167,333.887 44.054,333.940 43.917 C 333.992 43.779,334.140 43.667,334.268 43.667 C 334.396 43.667,334.500 43.554,334.500 43.417 C 334.500 43.261,334.657 43.167,334.917 43.167 C 335.146 43.167,335.333 43.092,335.333 43.000 C 335.333 42.902,335.913 42.833,336.740 42.833 C 337.514 42.833,338.193 42.908,338.250 43.000 C 338.307 43.092,338.536 43.167,338.760 43.167 C 339.010 43.167,339.167 43.263,339.167 43.417 C 339.167 43.564,339.321 43.668,339.542 43.671 C 339.814 43.674,340.000 43.856,340.222 44.338 C 340.390 44.702,340.634 45.000,340.764 45.000 C 340.905 45.000,341.000 45.169,341.000 45.422 C 341.000 45.654,341.112 45.887,341.250 45.940 C 341.413 46.002,341.500 46.262,341.500 46.684 C 341.500 47.150,341.571 47.333,341.750 47.333 C 341.948 47.333,342.000 47.574,342.000 48.500 C 342.000 49.167,342.071 49.667,342.167 49.667 C 342.275 49.667,342.333 51.944,342.333 56.167 C 342.333 60.389,342.275 62.667,342.167 62.667 C 342.060 62.667,342.000 64.167,342.000 66.833 L 342.000 71.000 345.417 71.000 L 348.833 71.000 348.833 68.434 C 348.833 66.308,348.876 65.853,349.083 65.773 C 349.301 65.690,349.333 64.569,349.333 57.083 C 349.333 49.598,349.301 48.477,349.083 48.394 C 348.882 48.316,348.833 47.942,348.833 46.482 C 348.833 44.980,348.790 44.667,348.583 44.667 C 348.403 44.667,348.333 44.481,348.333 44.000 C 348.333 43.519,348.264 43.333,348.083 43.333 C 347.898 43.333,347.833 43.139,347.833 42.583 C 347.833 42.171,347.758 41.833,347.667 41.833 C 347.575 41.833,347.500 41.646,347.500 41.417 C 347.500 41.157,347.406 41.000,347.250 41.000 C 347.083 41.000,347.000 40.833,347.000 40.500 C 347.000 40.167,346.917 40.000,346.750 40.000 C 346.613 40.000,346.500 39.887,346.500 39.750 C 346.500 39.612,346.420 39.500,346.321 39.500 C 346.091 39.500,345.667 39.076,345.667 38.845 C 345.667 38.747,345.554 38.667,345.417 38.667 C 345.279 38.667,345.167 38.554,345.167 38.417 C 345.167 38.279,345.054 38.167,344.917 38.167 C 344.779 38.167,344.667 38.054,344.667 37.917 C 344.667 37.779,344.562 37.667,344.434 37.667 C 344.307 37.667,344.159 37.554,344.106 37.417 C 344.054 37.279,343.858 37.167,343.672 37.167 C 343.486 37.167,343.333 37.092,343.333 37.000 C 343.333 36.908,343.108 36.833,342.833 36.833 C 342.500 36.833,342.333 36.750,342.333 36.583 C 342.333 36.385,342.093 36.333,341.167 36.333 C 340.241 36.333,340.000 36.282,340.000 36.083 C 340.000 35.877,339.694 35.833,338.245 35.833 C 336.838 35.833,336.470 35.883,336.394 36.083 C 336.325 36.263,336.044 36.333,335.399 36.333 C 334.711 36.333,334.500 36.392,334.500 36.583 C 334.500 36.764,334.315 36.833,333.833 36.833 C 333.467 36.833,333.167 36.908,333.167 37.000 C 333.167 37.092,332.977 37.167,332.745 37.167 C 332.513 37.167,332.280 37.279,332.227 37.417 C 332.174 37.554,331.987 37.667,331.810 37.667 C 331.634 37.667,331.446 37.779,331.394 37.917 C 331.341 38.054,331.193 38.167,331.066 38.167 C 330.938 38.167,330.833 38.279,330.833 38.417 C 330.833 38.554,330.721 38.667,330.583 38.667 C 330.446 38.667,330.333 38.779,330.333 38.917 C 330.333 39.054,330.221 39.167,330.083 39.167 C 329.946 39.167,329.833 39.234,329.833 39.315 C 329.833 39.397,329.646 39.511,329.417 39.568 C 329.188 39.626,329.000 39.747,329.000 39.837 C 329.000 39.926,328.887 40.000,328.750 40.000 C 328.612 40.000,328.500 40.104,328.500 40.232 C 328.500 40.360,328.387 40.508,328.250 40.560 C 328.112 40.613,328.000 40.775,328.000 40.919 C 328.000 41.064,327.813 41.356,327.583 41.569 C 327.354 41.781,327.167 42.040,327.167 42.144 C 327.167 42.248,327.054 42.333,326.917 42.333 C 326.779 42.333,326.667 42.446,326.667 42.583 C 326.667 42.721,326.554 42.833,326.417 42.833 C 326.261 42.833,326.167 42.991,326.167 43.250 C 326.167 43.509,326.072 43.667,325.917 43.667 C 325.702 43.667,325.667 43.120,325.667 39.750 L 325.667 35.833 323.661 35.833 C 322.033 35.833,321.638 35.880,321.560 36.083 M66.750 39.333 C 66.693 39.425,66.357 39.500,66.002 39.500 C 65.647 39.500,65.245 39.612,65.107 39.750 C 64.970 39.887,64.707 40.000,64.524 40.000 C 64.340 40.000,64.078 40.112,63.940 40.250 C 63.803 40.387,63.573 40.500,63.429 40.500 C 63.285 40.500,63.167 40.612,63.167 40.750 C 63.167 40.906,63.009 41.000,62.750 41.000 C 62.521 41.000,62.333 41.075,62.333 41.167 C 62.333 41.258,62.258 41.333,62.167 41.333 C 62.075 41.333,61.850 41.483,61.667 41.667 C 61.483 41.850,61.333 42.075,61.333 42.167 C 61.333 42.258,61.221 42.333,61.083 42.333 C 60.946 42.333,60.833 42.446,60.833 42.583 C 60.833 42.721,60.758 42.833,60.667 42.833 C 60.575 42.833,60.500 42.946,60.500 43.083 C 60.500 43.221,60.387 43.333,60.250 43.333 C 60.112 43.333,60.000 43.437,60.000 43.563 C 60.000 43.689,59.887 43.886,59.750 44.000 C 59.612 44.114,59.500 44.415,59.500 44.669 C 59.500 44.926,59.389 45.174,59.250 45.227 C 59.093 45.287,59.000 45.542,59.000 45.911 C 59.000 46.235,58.925 46.500,58.833 46.500 C 58.735 46.500,58.667 47.113,58.667 48.006 C 58.667 49.459,58.649 49.528,58.167 50.000 C 57.892 50.269,57.667 50.633,57.667 50.810 C 57.667 50.987,57.554 51.174,57.417 51.227 C 57.262 51.286,57.167 51.540,57.167 51.894 C 57.167 52.247,57.072 52.501,56.917 52.560 C 56.737 52.629,56.667 52.911,56.667 53.568 C 56.667 54.070,56.590 54.527,56.497 54.585 C 56.399 54.646,56.336 55.361,56.348 56.287 C 56.365 57.594,56.320 57.911,56.101 58.033 C 55.926 58.132,55.833 58.410,55.833 58.842 C 55.833 59.316,55.763 59.500,55.583 59.500 C 55.371 59.500,55.333 59.909,55.333 62.179 C 55.333 64.337,55.285 64.906,55.083 65.107 C 54.946 65.245,54.833 65.502,54.833 65.679 C 54.833 65.855,54.758 66.000,54.667 66.000 C 54.575 66.000,54.500 66.300,54.500 66.667 C 54.500 67.148,54.431 67.333,54.250 67.333 C 54.039 67.333,54.000 67.721,54.000 69.821 C 54.000 71.811,54.050 72.360,54.250 72.560 C 54.387 72.697,54.500 72.998,54.500 73.228 C 54.500 73.459,54.575 73.693,54.667 73.750 C 54.758 73.807,54.833 74.001,54.833 74.182 C 54.833 74.363,54.946 74.554,55.083 74.606 C 55.221 74.659,55.333 74.844,55.333 75.018 C 55.333 75.351,55.884 76.000,56.167 76.000 C 56.258 76.000,56.333 76.082,56.333 76.182 C 56.333 76.494,57.829 77.833,58.178 77.833 C 58.361 77.833,58.554 77.946,58.606 78.083 C 58.659 78.221,58.874 78.333,59.083 78.333 C 59.293 78.333,59.508 78.446,59.560 78.583 C 59.623 78.747,59.883 78.833,60.314 78.833 C 60.693 78.833,61.002 78.922,61.041 79.042 C 61.093 79.196,62.048 79.271,64.752 79.333 C 68.162 79.411,68.376 79.435,68.114 79.696 C 67.959 79.850,67.833 80.212,67.833 80.500 C 67.833 80.788,67.721 81.136,67.583 81.274 C 67.436 81.421,67.333 81.828,67.333 82.262 C 67.333 82.668,67.258 83.000,67.167 83.000 C 67.063 83.000,67.000 83.997,67.000 85.657 C 67.000 87.248,67.067 88.355,67.167 88.417 C 67.258 88.473,67.333 88.847,67.333 89.248 C 67.333 89.673,67.437 90.080,67.583 90.226 C 67.721 90.364,67.833 90.746,67.833 91.077 C 67.833 91.457,67.925 91.712,68.083 91.773 C 68.221 91.826,68.333 92.048,68.333 92.268 C 68.333 92.511,68.431 92.667,68.583 92.667 C 68.721 92.667,68.833 92.779,68.833 92.917 C 68.833 93.054,68.908 93.167,69.000 93.167 C 69.092 93.167,69.167 93.244,69.167 93.339 C 69.167 93.598,70.142 94.500,70.422 94.500 C 70.557 94.500,70.667 94.612,70.667 94.750 C 70.667 94.888,70.771 95.000,70.899 95.000 C 71.027 95.000,71.174 95.112,71.227 95.250 C 71.280 95.388,71.469 95.500,71.648 95.500 C 71.826 95.500,71.997 95.574,72.028 95.665 C 72.225 96.251,79.819 96.368,80.240 95.792 C 80.358 95.631,80.539 95.500,80.643 95.500 C 80.748 95.500,80.833 95.388,80.833 95.250 C 80.833 95.112,80.908 95.000,81.000 95.000 C 81.092 95.000,81.167 94.888,81.167 94.750 C 81.167 94.612,81.279 94.500,81.417 94.500 C 81.554 94.500,81.667 94.396,81.667 94.268 C 81.667 94.140,81.779 93.992,81.917 93.940 C 82.054 93.887,82.167 93.699,82.167 93.523 C 82.167 93.347,82.279 93.159,82.417 93.106 C 82.572 93.047,82.667 92.793,82.667 92.440 C 82.667 92.086,82.762 91.832,82.917 91.773 C 83.061 91.718,83.167 91.468,83.167 91.182 C 83.167 90.909,83.242 90.640,83.333 90.583 C 83.425 90.527,83.500 89.930,83.500 89.258 C 83.500 88.325,83.559 88.013,83.750 87.940 C 83.926 87.872,84.000 87.597,84.000 87.005 C 84.000 86.544,84.074 86.167,84.163 86.167 C 84.253 86.167,84.379 85.961,84.442 85.710 C 84.505 85.459,84.656 85.153,84.778 85.031 C 84.900 84.909,85.000 84.702,85.000 84.571 C 85.000 84.440,85.075 84.333,85.167 84.333 C 85.258 84.333,85.333 84.221,85.333 84.083 C 85.333 83.946,85.420 83.833,85.527 83.833 C 85.768 83.833,87.137 82.357,87.263 81.961 C 87.314 81.799,87.426 81.667,87.511 81.667 C 87.597 81.667,87.667 81.554,87.667 81.417 C 87.667 81.279,87.779 81.167,87.917 81.167 C 88.054 81.167,88.167 81.054,88.167 80.917 C 88.167 80.779,88.261 80.667,88.377 80.667 C 88.577 80.667,88.854 80.265,89.096 79.625 C 89.156 79.465,89.272 79.333,89.353 79.333 C 89.434 79.333,89.500 79.221,89.500 79.083 C 89.500 78.946,89.612 78.833,89.750 78.833 C 89.888 78.833,90.000 78.721,90.000 78.583 C 90.000 78.446,90.112 78.333,90.250 78.333 C 90.388 78.333,90.500 78.221,90.500 78.083 C 90.500 77.946,90.570 77.833,90.655 77.833 C 90.741 77.833,90.862 77.672,90.925 77.474 C 90.988 77.276,91.218 76.949,91.436 76.747 C 91.655 76.544,91.833 76.293,91.833 76.189 C 91.833 76.085,91.918 76.000,92.023 76.000 C 92.127 76.000,92.382 75.817,92.589 75.593 L 92.967 75.185 97.928 75.134 C 101.712 75.095,102.906 75.034,102.958 74.875 C 103.000 74.751,103.319 74.667,103.743 74.667 C 104.176 74.667,104.541 74.568,104.667 74.417 C 104.781 74.279,104.977 74.167,105.104 74.167 C 105.230 74.167,105.333 74.054,105.333 73.917 C 105.333 73.779,105.414 73.667,105.512 73.667 C 105.610 73.667,105.798 73.560,105.929 73.429 C 106.060 73.298,106.167 73.110,106.167 73.012 C 106.167 72.914,106.279 72.833,106.417 72.833 C 106.583 72.833,106.667 72.667,106.667 72.333 C 106.667 72.000,106.750 71.833,106.917 71.833 C 107.137 71.833,107.167 70.315,107.167 59.167 C 107.167 48.019,107.137 46.500,106.917 46.500 C 106.765 46.500,106.667 46.345,106.667 46.107 C 106.667 45.882,106.488 45.579,106.250 45.400 C 106.021 45.228,105.833 44.993,105.833 44.877 C 105.833 44.761,105.721 44.667,105.583 44.667 C 105.446 44.667,105.333 44.554,105.333 44.417 C 105.333 44.279,105.248 44.167,105.143 44.167 C 105.039 44.167,104.865 44.046,104.758 43.899 C 104.586 43.665,103.726 43.616,97.843 43.506 C 91.864 43.395,91.107 43.351,90.970 43.107 C 90.873 42.934,90.601 42.833,90.230 42.833 C 89.907 42.833,89.530 42.721,89.393 42.583 C 89.255 42.446,88.955 42.333,88.726 42.333 C 88.497 42.333,88.197 42.221,88.060 42.083 C 87.922 41.946,87.609 41.831,87.363 41.828 C 87.118 41.825,86.771 41.713,86.593 41.578 C 86.415 41.443,85.984 41.333,85.635 41.333 C 85.286 41.333,85.000 41.258,85.000 41.167 C 85.000 41.075,84.747 41.000,84.437 41.000 C 84.127 41.000,83.781 40.887,83.667 40.750 C 83.549 40.609,83.186 40.500,82.831 40.500 C 82.426 40.500,82.168 40.411,82.106 40.250 C 82.037 40.070,81.756 40.000,81.102 40.000 C 80.530 40.000,80.169 39.924,80.126 39.794 C 80.081 39.660,79.580 39.567,78.695 39.527 C 77.946 39.493,77.333 39.398,77.333 39.316 C 77.333 39.104,66.881 39.121,66.750 39.333 M162.833 41.583 C 162.833 41.764,163.019 41.833,163.500 41.833 C 163.981 41.833,164.167 41.903,164.167 42.083 C 164.167 42.224,164.316 42.333,164.508 42.333 C 164.696 42.333,165.023 42.521,165.235 42.750 C 165.448 42.979,165.707 43.167,165.811 43.167 C 165.915 43.167,166.000 43.279,166.000 43.417 C 166.000 43.554,166.075 43.667,166.167 43.667 C 166.343 43.667,167.000 44.267,167.000 44.429 C 167.000 44.592,167.467 45.000,167.655 45.000 C 167.753 45.000,167.833 45.112,167.833 45.250 C 167.833 45.387,167.946 45.500,168.083 45.500 C 168.250 45.500,168.333 45.667,168.333 46.000 C 168.333 46.333,168.417 46.500,168.583 46.500 C 168.764 46.500,168.833 46.685,168.833 47.167 C 168.833 47.533,168.908 47.833,169.000 47.833 C 169.092 47.833,169.167 48.053,169.167 48.321 C 169.167 48.590,169.279 48.922,169.417 49.060 C 169.574 49.216,169.667 49.626,169.667 50.160 C 169.667 50.762,169.740 51.038,169.917 51.106 C 170.122 51.185,170.167 51.602,170.167 53.417 C 170.167 55.231,170.122 55.648,169.917 55.727 C 169.730 55.798,169.667 56.096,169.667 56.894 C 169.667 57.692,169.603 57.989,169.417 58.060 C 169.252 58.124,169.167 58.385,169.167 58.828 C 169.167 59.198,169.092 59.500,169.000 59.500 C 168.908 59.500,168.833 59.688,168.833 59.917 C 168.833 60.176,168.739 60.333,168.583 60.333 C 168.417 60.333,168.333 60.500,168.333 60.833 C 168.333 61.167,168.250 61.333,168.083 61.333 C 167.946 61.333,167.833 61.433,167.833 61.555 C 167.833 61.677,167.646 61.877,167.417 62.000 C 167.188 62.123,167.000 62.283,167.000 62.356 C 167.000 62.510,165.872 63.667,165.722 63.667 C 165.667 63.667,165.448 63.854,165.235 64.083 C 165.023 64.313,164.696 64.500,164.508 64.500 C 164.316 64.500,164.167 64.609,164.167 64.750 C 164.167 64.917,164.000 65.000,163.667 65.000 C 163.333 65.000,163.167 65.083,163.167 65.250 C 163.167 65.461,162.780 65.500,160.684 65.500 C 158.632 65.500,158.186 65.457,158.106 65.250 C 158.043 65.085,157.782 65.000,157.339 65.000 C 156.852 65.000,156.667 64.931,156.667 64.750 C 156.667 64.612,156.562 64.500,156.434 64.500 C 156.307 64.500,156.159 64.387,156.106 64.250 C 156.054 64.112,155.858 64.000,155.672 64.000 C 155.486 64.000,155.333 63.925,155.333 63.833 C 155.333 63.742,155.221 63.667,155.083 63.667 C 154.946 63.667,154.833 63.554,154.833 63.417 C 154.833 63.279,154.721 63.167,154.583 63.167 C 154.446 63.167,154.333 63.054,154.333 62.917 C 154.333 62.779,154.266 62.667,154.185 62.667 C 154.103 62.667,153.989 62.479,153.932 62.250 C 153.874 62.021,153.753 61.833,153.663 61.833 C 153.574 61.833,153.500 61.721,153.500 61.583 C 153.500 61.446,153.387 61.333,153.250 61.333 C 153.083 61.333,153.000 61.167,153.000 60.833 C 153.000 60.500,152.917 60.333,152.750 60.333 C 152.594 60.333,152.500 60.176,152.500 59.917 C 152.500 59.657,152.406 59.500,152.250 59.500 C 152.070 59.500,152.000 59.316,152.000 58.843 C 152.000 58.482,151.925 58.140,151.833 58.083 C 151.742 58.027,151.667 57.607,151.667 57.152 C 151.667 56.569,151.593 56.294,151.417 56.227 C 151.209 56.147,151.167 55.676,151.167 53.417 C 151.167 51.158,151.209 50.686,151.417 50.606 C 151.604 50.535,151.667 50.236,151.667 49.422 C 151.667 48.807,151.739 48.333,151.833 48.333 C 151.925 48.333,152.000 48.108,152.000 47.833 C 152.000 47.500,152.083 47.333,152.250 47.333 C 152.406 47.333,152.500 47.176,152.500 46.917 C 152.500 46.657,152.594 46.500,152.750 46.500 C 152.917 46.500,153.000 46.333,153.000 46.000 C 153.000 45.667,153.083 45.500,153.250 45.500 C 153.387 45.500,153.500 45.387,153.500 45.250 C 153.500 45.112,153.574 45.000,153.663 45.000 C 153.753 45.000,153.874 44.813,153.932 44.583 C 153.989 44.354,154.103 44.167,154.185 44.167 C 154.266 44.167,154.333 44.054,154.333 43.917 C 154.333 43.779,154.446 43.667,154.583 43.667 C 154.721 43.667,154.833 43.554,154.833 43.417 C 154.833 43.270,154.988 43.164,155.208 43.161 C 155.638 43.155,156.167 42.803,156.167 42.523 C 156.167 42.419,156.357 42.333,156.589 42.333 C 156.821 42.333,157.054 42.221,157.106 42.083 C 157.169 41.920,157.428 41.833,157.851 41.833 C 158.317 41.833,158.500 41.763,158.500 41.583 C 158.500 41.374,158.852 41.333,160.667 41.333 C 162.481 41.333,162.833 41.374,162.833 41.583 M374.333 41.583 C 374.333 41.748,374.498 41.833,374.816 41.833 C 375.090 41.833,375.339 41.941,375.394 42.083 C 375.446 42.221,375.634 42.333,375.810 42.333 C 375.987 42.333,376.174 42.446,376.227 42.583 C 376.280 42.721,376.481 42.833,376.673 42.833 C 377.047 42.833,377.500 43.192,377.500 43.488 C 377.500 43.586,377.613 43.667,377.750 43.667 C 377.887 43.667,378.000 43.779,378.000 43.917 C 378.000 44.054,378.113 44.167,378.250 44.167 C 378.387 44.167,378.500 44.279,378.500 44.417 C 378.500 44.554,378.613 44.667,378.750 44.667 C 378.906 44.667,379.000 44.824,379.000 45.083 C 379.000 45.343,379.094 45.500,379.250 45.500 C 379.387 45.500,379.500 45.612,379.500 45.750 C 379.500 45.887,379.575 46.000,379.667 46.000 C 379.758 46.000,379.833 46.190,379.833 46.422 C 379.833 46.654,379.946 46.887,380.083 46.940 C 380.238 46.999,380.333 47.253,380.333 47.606 C 380.333 47.960,380.428 48.214,380.583 48.273 C 380.746 48.336,380.833 48.595,380.833 49.018 C 380.833 49.483,380.904 49.667,381.083 49.667 C 381.290 49.667,381.333 49.980,381.333 51.486 C 381.333 52.790,381.392 53.327,381.542 53.381 C 381.708 53.441,381.708 53.527,381.542 53.809 C 381.417 54.021,381.333 54.762,381.333 55.664 C 381.333 56.889,381.287 57.167,381.083 57.167 C 380.891 57.167,380.833 57.380,380.833 58.083 C 380.833 58.787,380.775 59.000,380.583 59.000 C 380.431 59.000,380.333 59.155,380.333 59.396 C 380.333 59.614,380.221 59.886,380.083 60.000 C 379.946 60.114,379.833 60.348,379.833 60.520 C 379.833 60.693,379.758 60.833,379.667 60.833 C 379.575 60.833,379.500 61.058,379.500 61.333 C 379.500 61.667,379.417 61.833,379.250 61.833 C 379.113 61.833,379.000 61.908,379.000 62.000 C 379.000 62.092,378.887 62.167,378.750 62.167 C 378.613 62.167,378.500 62.279,378.500 62.417 C 378.500 62.554,378.387 62.667,378.250 62.667 C 378.113 62.667,378.000 62.739,378.000 62.828 C 378.000 63.093,377.078 63.953,376.649 64.088 C 376.430 64.157,376.085 64.390,375.883 64.606 C 375.651 64.855,375.327 65.000,375.003 65.000 C 374.700 65.000,374.450 65.103,374.394 65.250 C 374.315 65.456,373.887 65.500,371.982 65.500 C 370.035 65.500,369.667 65.460,369.667 65.250 C 369.667 65.069,369.481 65.000,369.000 65.000 C 368.519 65.000,368.333 64.931,368.333 64.750 C 368.333 64.583,368.167 64.500,367.833 64.500 C 367.500 64.500,367.333 64.417,367.333 64.250 C 367.333 64.112,367.256 64.000,367.161 64.000 C 366.945 64.000,366.000 63.045,366.000 62.828 C 366.000 62.739,365.887 62.667,365.750 62.667 C 365.613 62.667,365.500 62.554,365.500 62.417 C 365.500 62.279,365.387 62.167,365.250 62.167 C 365.094 62.167,365.000 62.009,365.000 61.750 C 365.000 61.491,364.906 61.333,364.750 61.333 C 364.613 61.333,364.500 61.221,364.500 61.083 C 364.500 60.946,364.425 60.833,364.333 60.833 C 364.242 60.833,364.167 60.643,364.167 60.411 C 364.167 60.179,364.054 59.946,363.917 59.894 C 363.779 59.841,363.667 59.618,363.667 59.399 C 363.667 59.155,363.569 59.000,363.417 59.000 C 363.225 59.000,363.167 58.787,363.167 58.083 C 363.167 57.380,363.109 57.167,362.917 57.167 C 362.714 57.167,362.667 56.898,362.667 55.750 C 362.667 54.917,362.598 54.333,362.500 54.333 C 362.408 54.333,362.333 53.921,362.333 53.417 C 362.333 52.913,362.408 52.500,362.500 52.500 C 362.598 52.500,362.667 51.917,362.667 51.083 C 362.667 49.935,362.714 49.667,362.917 49.667 C 363.109 49.667,363.167 49.454,363.167 48.750 C 363.167 48.046,363.225 47.833,363.417 47.833 C 363.569 47.833,363.667 47.678,363.667 47.434 C 363.667 47.215,363.779 46.992,363.917 46.940 C 364.054 46.887,364.167 46.654,364.167 46.422 C 364.167 46.190,364.242 46.000,364.333 46.000 C 364.425 46.000,364.500 45.775,364.500 45.500 C 364.500 45.167,364.583 45.000,364.750 45.000 C 364.887 45.000,365.000 44.925,365.000 44.833 C 365.000 44.742,365.113 44.667,365.250 44.667 C 365.387 44.667,365.500 44.554,365.500 44.417 C 365.500 44.279,365.613 44.167,365.750 44.167 C 365.887 44.167,366.000 44.094,366.000 44.006 C 366.000 43.719,366.965 42.849,367.405 42.738 C 367.641 42.679,367.833 42.564,367.833 42.482 C 367.833 42.400,367.946 42.333,368.083 42.333 C 368.221 42.333,368.333 42.221,368.333 42.083 C 368.333 41.903,368.519 41.833,369.000 41.833 C 369.481 41.833,369.667 41.764,369.667 41.583 C 369.667 41.373,370.037 41.333,372.000 41.333 C 373.963 41.333,374.333 41.373,374.333 41.583 M77.667 44.833 C 77.667 44.929,78.167 45.000,78.833 45.000 C 79.759 45.000,80.000 45.052,80.000 45.250 C 80.000 45.429,80.183 45.500,80.646 45.500 C 81.017 45.500,81.381 45.606,81.500 45.750 C 81.625 45.901,81.990 46.000,82.419 46.000 C 82.898 46.000,83.162 46.082,83.227 46.250 C 83.285 46.400,83.541 46.502,83.870 46.505 C 84.171 46.508,84.562 46.621,84.740 46.755 C 84.918 46.890,85.274 47.000,85.532 47.000 C 85.789 47.000,86.000 47.075,86.000 47.167 C 86.000 47.258,86.300 47.333,86.667 47.333 C 87.148 47.333,87.333 47.403,87.333 47.583 C 87.333 47.758,87.510 47.833,87.922 47.833 C 88.291 47.833,88.546 47.926,88.606 48.083 C 88.674 48.259,88.948 48.333,89.530 48.333 C 90.043 48.333,90.452 48.428,90.607 48.583 C 90.778 48.754,91.198 48.833,91.929 48.833 L 93.000 48.833 93.000 59.250 L 93.000 69.667 92.223 69.667 C 91.455 69.667,90.167 70.104,90.167 70.365 C 90.167 70.439,90.054 70.500,89.917 70.500 C 89.779 70.500,89.667 70.612,89.667 70.750 C 89.667 70.887,89.554 71.000,89.417 71.000 C 89.279 71.000,89.167 71.112,89.167 71.250 C 89.167 71.387,89.054 71.500,88.917 71.500 C 88.779 71.500,88.667 71.612,88.667 71.750 C 88.667 71.887,88.586 72.000,88.488 72.000 C 88.257 72.000,87.833 72.424,87.833 72.655 C 87.833 72.753,87.721 72.833,87.583 72.833 C 87.446 72.833,87.333 72.946,87.333 73.083 C 87.333 73.221,87.221 73.333,87.083 73.333 C 86.946 73.333,86.833 73.406,86.833 73.494 C 86.833 73.583,86.608 73.885,86.333 74.167 C 86.058 74.448,85.833 74.788,85.833 74.922 C 85.833 75.057,85.758 75.167,85.667 75.167 C 85.575 75.167,85.500 75.279,85.500 75.417 C 85.500 75.554,85.388 75.667,85.250 75.667 C 85.112 75.667,85.000 75.747,85.000 75.846 C 85.000 75.945,84.775 76.251,84.500 76.526 C 84.225 76.801,84.000 77.132,84.000 77.263 C 84.000 77.393,83.925 77.500,83.833 77.500 C 83.742 77.500,83.667 77.612,83.667 77.750 C 83.667 77.887,83.554 78.000,83.417 78.000 C 83.279 78.000,83.167 78.072,83.167 78.161 C 83.167 78.249,82.942 78.552,82.667 78.833 C 82.392 79.115,82.167 79.455,82.167 79.589 C 82.167 79.723,82.086 79.833,81.988 79.833 C 81.757 79.833,81.333 80.257,81.333 80.488 C 81.333 80.586,81.221 80.667,81.083 80.667 C 80.946 80.667,80.833 80.771,80.833 80.899 C 80.833 81.027,80.721 81.174,80.583 81.227 C 80.446 81.280,80.333 81.513,80.333 81.745 C 80.333 82.009,80.240 82.167,80.083 82.167 C 79.946 82.167,79.833 82.312,79.833 82.490 C 79.833 82.668,79.758 82.860,79.667 82.917 C 79.575 82.973,79.500 83.240,79.500 83.510 C 79.500 83.834,79.416 84.000,79.250 84.000 C 79.059 84.000,79.000 84.211,79.000 84.899 C 79.000 85.544,78.929 85.825,78.750 85.894 C 78.577 85.960,78.498 86.235,78.495 86.786 C 78.492 87.225,78.379 87.729,78.245 87.907 C 78.110 88.085,78.000 88.544,78.000 88.928 C 78.000 89.345,77.899 89.709,77.750 89.833 C 77.612 89.947,77.500 90.219,77.500 90.437 C 77.500 90.655,77.425 90.833,77.333 90.833 C 77.242 90.833,77.167 90.946,77.167 91.083 C 77.167 91.278,76.944 91.333,76.167 91.333 C 75.389 91.333,75.167 91.278,75.167 91.083 C 75.167 90.939,75.016 90.833,74.811 90.833 C 74.615 90.833,74.281 90.646,74.069 90.417 C 73.856 90.188,73.604 90.000,73.508 90.000 C 73.412 90.000,73.333 89.888,73.333 89.750 C 73.333 89.612,73.221 89.500,73.083 89.500 C 72.910 89.500,72.833 89.325,72.833 88.927 C 72.833 88.611,72.758 88.307,72.667 88.250 C 72.569 88.189,72.500 87.196,72.500 85.833 C 72.500 84.471,72.569 83.477,72.667 83.417 C 72.758 83.360,72.833 83.018,72.833 82.657 C 72.833 82.184,72.903 82.000,73.083 82.000 C 73.264 82.000,73.333 81.815,73.333 81.333 C 73.333 80.852,73.403 80.667,73.583 80.667 C 73.736 80.667,73.833 80.511,73.833 80.268 C 73.833 80.048,73.946 79.826,74.083 79.773 C 74.221 79.720,74.333 79.495,74.333 79.273 C 74.333 79.051,74.446 78.826,74.583 78.773 C 74.740 78.713,74.833 78.458,74.833 78.089 C 74.833 77.765,74.908 77.500,75.000 77.500 C 75.092 77.500,75.167 77.134,75.167 76.687 C 75.167 76.168,75.257 75.799,75.417 75.667 C 75.765 75.377,75.738 74.341,75.375 74.065 C 75.144 73.890,73.706 73.843,68.476 73.839 C 62.760 73.834,61.856 73.800,61.773 73.583 C 61.720 73.446,61.487 73.333,61.255 73.333 C 60.991 73.333,60.833 73.240,60.833 73.083 C 60.833 72.946,60.721 72.833,60.583 72.833 C 60.446 72.833,60.333 72.721,60.333 72.583 C 60.333 72.446,60.258 72.333,60.167 72.333 C 60.075 72.333,60.000 72.181,60.000 71.995 C 60.000 71.809,59.887 71.613,59.750 71.560 C 59.551 71.484,59.500 71.127,59.500 69.816 C 59.500 68.461,59.545 68.167,59.750 68.167 C 59.899 68.167,60.000 68.013,60.000 67.787 C 60.000 67.305,60.876 66.333,61.311 66.333 C 61.766 66.333,61.993 65.362,61.603 65.077 C 61.455 64.969,61.333 64.755,61.333 64.601 C 61.333 64.448,61.221 64.280,61.083 64.227 C 60.909 64.160,60.833 63.888,60.833 63.325 C 60.833 62.882,60.752 62.469,60.652 62.408 C 60.522 62.327,60.522 62.245,60.652 62.115 C 60.752 62.015,60.833 61.581,60.833 61.151 C 60.833 60.610,60.910 60.339,61.083 60.273 C 61.221 60.220,61.333 59.987,61.333 59.755 C 61.333 59.523,61.407 59.333,61.498 59.333 C 62.233 59.333,62.674 57.531,62.083 56.940 C 61.920 56.777,61.833 56.364,61.833 55.750 C 61.833 55.136,61.920 54.723,62.083 54.560 C 62.221 54.422,62.333 54.119,62.333 53.885 C 62.333 53.591,62.601 53.206,63.208 52.627 L 64.083 51.792 64.090 49.616 C 64.095 48.067,64.155 47.421,64.298 47.373 C 64.409 47.336,64.500 47.124,64.500 46.903 C 64.500 46.656,64.597 46.500,64.750 46.500 C 64.887 46.500,65.000 46.387,65.000 46.250 C 65.000 46.112,65.112 46.000,65.250 46.000 C 65.387 46.000,65.500 45.887,65.500 45.750 C 65.500 45.612,65.612 45.500,65.750 45.500 C 65.887 45.500,66.000 45.387,66.000 45.250 C 66.000 45.076,66.175 45.000,66.573 45.000 C 66.889 45.000,67.193 44.925,67.250 44.833 C 67.315 44.728,69.252 44.667,72.510 44.667 C 75.837 44.667,77.667 44.726,77.667 44.833 M100.875 49.065 C 101.035 49.187,101.167 49.372,101.167 49.477 C 101.167 49.581,101.279 49.667,101.417 49.667 C 101.609 49.667,101.667 49.880,101.667 50.583 C 101.667 51.256,101.605 51.500,101.434 51.500 C 101.307 51.500,101.159 51.612,101.106 51.750 C 100.936 52.194,99.557 52.079,99.098 51.583 C 98.886 51.354,98.627 51.167,98.523 51.167 C 98.238 51.167,98.292 50.218,98.583 50.106 C 98.721 50.054,98.833 49.838,98.833 49.628 C 98.833 48.968,100.237 48.581,100.875 49.065 M7.667 55.417 C 7.667 55.583,7.833 55.667,8.167 55.667 C 8.586 55.667,8.667 55.733,8.667 56.073 C 8.667 56.297,8.742 56.527,8.833 56.583 C 9.254 56.844,8.856 58.000,8.345 58.000 C 8.247 58.000,8.167 58.112,8.167 58.250 C 8.167 58.387,8.032 58.500,7.867 58.500 C 7.702 58.500,7.477 58.590,7.367 58.700 C 7.211 58.856,7.167 58.856,7.167 58.700 C 7.167 58.589,6.944 58.500,6.667 58.500 C 6.333 58.500,6.167 58.417,6.167 58.250 C 6.167 58.112,6.092 58.000,6.000 58.000 C 5.908 58.000,5.836 57.606,5.839 57.125 C 5.844 56.281,6.104 55.667,6.456 55.667 C 6.550 55.667,6.719 55.554,6.833 55.417 C 6.947 55.279,7.182 55.167,7.354 55.167 C 7.526 55.167,7.667 55.279,7.667 55.417 " stroke="none" fill="#040404" fill-rule="evenodd"></path><path id="path1" d="" stroke="none" fill="#080404" fill-rule="evenodd"></path><path id="path2" d="" stroke="none" fill="#080404" fill-rule="evenodd"></path><path id="path3" d="" stroke="none" fill="#080404" fill-rule="evenodd"></path><path id="path4" d="" stroke="none" fill="#080404" fill-rule="evenodd"></path></g></svg>